<?xml version="1.0" standalone="no"?>
<!DOCTYPE svg PUBLIC "-//W3C//DTD SVG 20010904//EN"
 "http://www.w3.org/TR/2001/REC-SVG-20010904/DTD/svg10.dtd">
<svg version="1.0" xmlns="http://www.w3.org/2000/svg"
 width="302.000000pt" height="302.000000pt" viewBox="0 0 302.000000 302.000000"
 preserveAspectRatio="xMidYMid meet">
<metadata>
Created by potrace 1.14, written by Peter Selinger 2001-2017
</metadata>
<g transform="translate(0.000000,302.000000) scale(0.100000,-0.100000)"
fill="#000000" stroke="none">
<path d="M1169 2440 l-226 -5 78 -135 c44 -74 79 -137 79 -140 0 -5 -226 -143
-457 -279 -61 -36 -113 -73 -115 -81 -2 -8 -4 -195 -3 -415 l0 -400 -25 -16
c-14 -9 -47 -28 -75 -43 -27 -16 -92 -53 -143 -83 l-94 -55 114 -65 c62 -35
131 -75 153 -87 190 -109 521 -301 610 -356 61 -37 173 -105 250 -152 224
-136 196 -125 246 -96 24 13 137 81 250 150 191 116 454 272 559 330 25 14
139 80 254 147 115 66 213 121 218 121 5 0 3 7 -6 15 -8 8 -17 15 -20 15 -4 0
-23 11 -44 23 -20 13 -59 36 -87 52 -27 15 -78 43 -111 63 l-62 35 0 396 c0
218 -1 404 -1 413 -1 14 -47 47 -143 103 -10 6 -84 51 -165 100 -81 50 -152
92 -158 95 -5 3 -34 20 -63 39 l-52 33 19 31 c46 75 140 242 137 244 -6 6
-696 8 -917 3z"/>
</g>
</svg>
