<?xml version="1.0" standalone="no"?>
<!DOCTYPE svg PUBLIC "-//W3C//DTD SVG 20010904//EN"
 "http://www.w3.org/TR/2001/REC-SVG-20010904/DTD/svg10.dtd">
<svg version="1.0" xmlns="http://www.w3.org/2000/svg"
 width="241.000000pt" height="241.000000pt" viewBox="0 0 241.000000 241.000000"
 preserveAspectRatio="xMidYMid meet">
<metadata>
Created by potrace 1.14, written by Peter Selinger 2001-2017
</metadata>
<g transform="translate(0.000000,241.000000) scale(0.100000,-0.100000)"
fill="#000000" stroke="none">
<path d="M1060 2325 c-74 -46 -146 -90 -160 -98 -38 -20 -73 -41 -84 -50 -11
-8 -389 -237 -495 -300 -29 -18 -65 -39 -80 -48 l-26 -16 -3 -605 -2 -605 40
-27 c22 -14 42 -26 45 -26 3 0 24 -12 48 -27 23 -15 50 -32 59 -38 84 -50 306
-184 453 -274 99 -61 191 -117 205 -124 14 -8 52 -30 84 -50 58 -36 59 -36 90
-19 17 9 33 20 34 25 2 4 7 7 12 7 4 0 74 41 155 90 81 50 151 90 156 90 5 0
9 4 9 9 0 5 12 14 28 20 15 6 59 31 97 56 63 40 135 84 205 125 14 9 80 49
148 89 l122 74 0 603 0 604 -52 30 c-55 32 -285 171 -493 299 -66 41 -140 85
-165 99 -25 13 -52 31 -61 38 -8 8 -19 14 -22 14 -7 0 -102 58 -147 90 -51 35
-59 33 -200 -55z m165 -74 c3 -5 2 -12 -3 -15 -5 -3 -9 1 -9 9 0 17 3 19 12 6z
m0 -35 c16 3 27 2 24 -1 -16 -15 -57 -14 -70 3 -12 15 -12 16 2 5 8 -7 28 -10
44 -7z m-96 1 c-2 -1 -13 -9 -24 -17 -19 -14 -19 -14 -6 3 7 9 18 17 24 17 6
0 8 -1 6 -3z m34 -15 c15 -16 15 -19 2 -19 -8 0 -13 3 -10 5 3 3 0 11 -6 19
-17 20 -5 16 14 -5z m130 6 c-5 -7 -9 -35 -8 -61 0 -27 -2 -50 -5 -52 -3 -2
-6 20 -5 48 0 49 9 77 22 77 3 0 1 -6 -4 -12z m37 -2 c0 -2 -8 -10 -17 -17
-16 -13 -17 -12 -4 4 13 16 21 21 21 13z m-104 -31 c-1 -8 -5 -17 -8 -21 -5
-4 -4 16 1 34 3 9 9 -1 7 -13z m120 0 c-1 -8 -5 -17 -8 -21 -5 -4 -4 16 1 34
3 9 9 -1 7 -13z m-252 -7 c-4 -5 -9 -7 -12 -4 -3 3 -12 0 -21 -7 -14 -10 -14
-10 -4 4 13 16 46 23 37 7z m154 -28 c-7 -10 -14 -17 -17 -15 -4 4 18 35 25
35 2 0 -1 -9 -8 -20z m153 3 c13 -16 12 -17 -3 -4 -17 13 -22 21 -14 21 2 0
10 -8 17 -17z m-379 -8 c2 3 5 -2 5 -10 0 -19 0 -19 -23 7 -12 14 -13 18 -3
10 9 -6 18 -10 21 -7z m68 12 c0 -2 -8 -11 -18 -20 -15 -14 -19 -15 -19 -2 0
8 4 12 8 9 4 -2 10 0 14 6 6 10 15 14 15 7z m75 -35 c-3 -3 1 -12 8 -21 11
-14 10 -14 -6 -2 -9 8 -15 16 -12 19 3 3 -3 15 -12 26 -18 21 -18 21 5 2 12
-11 20 -21 17 -24z m217 10 c11 -15 11 -15 -2 -5 -19 14 -42 12 -66 -7 -18
-14 -18 -14 -2 6 22 25 53 28 70 6z m-416 -18 c1 -9 0 -13 -4 -10 -3 4 -7 14
-8 22 -1 9 0 13 4 10 3 -4 7 -14 8 -22z m165 9 c13 -16 12 -17 -3 -4 -10 7
-18 15 -18 17 0 8 8 3 21 -13z m-109 -18 c2 3 5 -2 5 -10 0 -10 -4 -12 -12 -5
-7 5 -16 6 -21 2 -5 -4 -6 -3 -2 2 4 5 2 16 -4 25 -10 12 -7 12 8 -2 11 -9 23
-15 26 -12z m69 12 c-6 -8 -9 -17 -6 -20 3 -4 2 -5 -2 -2 -3 3 -11 0 -18 -5
-8 -7 -12 -5 -12 5 0 8 4 12 8 10 3 -3 12 2 19 10 7 8 15 15 17 15 3 0 0 -6
-6 -13z m291 -12 c2 3 5 -2 5 -10 0 -10 -4 -12 -12 -5 -7 5 -14 8 -17 5 -2 -3
-5 2 -5 10 0 10 4 12 12 5 7 -5 14 -8 17 -5z m98 1 c0 -2 -8 -10 -17 -17 -16
-13 -17 -12 -4 4 13 16 21 21 21 13z m-350 -10 c0 -2 -8 -10 -17 -17 -16 -13
-17 -12 -4 4 13 16 21 21 21 13z m81 -13 c13 -16 12 -17 -3 -4 -10 7 -18 15
-18 17 0 8 8 3 21 -13z m120 0 c13 -16 12 -17 -3 -4 -10 7 -18 15 -18 17 0 8
8 3 21 -13z m-355 -5 c3 -4 -1 -5 -10 -4 -8 1 -18 5 -22 8 -3 4 1 5 10 4 8 -1
18 -5 22 -8z m511 -6 c-9 -10 -26 -18 -39 -19 -17 -2 -19 0 -8 7 8 5 17 7 21
4 4 -2 12 3 19 11 7 8 15 15 18 15 3 0 -2 -8 -11 -18z m-465 -7 c2 3 5 -2 5
-10 0 -19 0 -19 -23 7 -12 14 -13 18 -3 10 9 -6 18 -10 21 -7z m68 12 c0 -2
-8 -11 -18 -20 -15 -14 -19 -15 -19 -2 0 8 4 12 8 9 4 -2 10 0 14 6 6 10 15
14 15 7z m50 -12 c-7 -8 -17 -15 -23 -15 -6 0 -2 7 9 15 25 19 30 19 14 0z
m64 -14 c-2 -3 -12 3 -22 13 -16 17 -16 18 5 5 12 -7 20 -15 17 -18z m58 14
c2 3 5 -2 5 -10 0 -19 0 -19 -23 7 -12 14 -13 18 -3 10 9 -6 18 -10 21 -7z
m47 1 c9 -10 8 -15 -2 -19 -8 -3 -13 3 -13 14 0 23 0 23 15 5z m94 -14 c15
-16 15 -19 2 -19 -8 0 -13 3 -10 5 3 3 0 11 -6 19 -17 20 -5 16 14 -5z m157
13 c0 -2 -6 -8 -13 -14 -10 -8 -14 -7 -14 2 0 8 6 14 14 14 7 0 13 -1 13 -2z
m-713 -20 c0 -8 -10 -23 -21 -32 -21 -18 -21 -18 -2 5 11 12 16 22 12 22 -4 0
-4 5 -1 10 9 14 12 13 12 -5z m326 2 c3 -7 -3 -13 -14 -13 -13 0 -15 3 -7 13
6 7 12 13 13 13 2 0 5 -6 8 -13z m-278 -6 c-9 -8 -36 -10 -30 -2 2 4 11 8 20
8 8 0 13 -3 10 -6z m436 -4 c-6 -8 -9 -17 -6 -20 3 -4 2 -5 -2 -2 -3 3 -11 0
-18 -5 -8 -7 -12 -5 -12 5 0 8 4 12 8 10 3 -3 12 2 19 10 7 8 15 15 17 15 3 0
0 -6 -6 -13z m44 3 c3 -6 -1 -7 -9 -4 -18 7 -21 14 -7 14 6 0 13 -4 16 -10z
m193 -10 c-7 -10 -14 -17 -17 -15 -4 4 18 35 25 35 2 0 -1 -9 -8 -20z m36 11
c3 -4 -4 -17 -17 -27 -22 -19 -22 -19 -4 2 9 11 14 24 10 27 -3 4 -4 7 0 7 3
0 8 -4 11 -9z m-653 -18 c13 -16 12 -17 -3 -4 -10 7 -18 15 -18 17 0 8 8 3 21
-13z m-21 -18 c14 -19 14 -19 -2 -6 -10 7 -18 18 -18 24 0 6 1 8 3 6 1 -2 9
-13 17 -24z m154 2 c1 -8 8 -23 16 -33 14 -18 14 -18 -6 -2 -11 9 -20 27 -21
39 -2 23 7 20 11 -4z m141 14 c3 -5 2 -12 -3 -15 -5 -3 -9 1 -9 9 0 17 3 19
12 6z m-218 -16 c0 -8 -10 -23 -21 -32 -21 -18 -21 -18 -2 5 11 12 16 22 12
22 -4 0 -4 5 -1 10 9 14 12 13 12 -5z m475 -2 c-1 -4 7 -17 16 -28 17 -20 17
-20 -4 -2 -11 9 -21 24 -21 32 0 8 2 13 5 11 2 -2 4 -8 4 -13z m-634 -13 c-7
-10 -14 -17 -17 -15 -4 4 18 35 25 35 2 0 -1 -9 -8 -20z m127 10 c-3 -5 -12
-10 -18 -10 -7 0 -6 4 3 10 19 12 23 12 15 0z m272 -8 c-17 -18 -51 -27 -41
-10 3 5 9 6 14 3 4 -3 13 2 20 10 7 8 15 15 18 15 3 0 -2 -8 -11 -18z m289 6
c3 -4 -1 -5 -10 -4 -8 1 -18 5 -22 8 -3 4 1 5 10 4 8 -1 18 -5 22 -8z m-620
-20 c12 -14 13 -18 3 -10 -9 6 -18 10 -21 7 -2 -3 -5 2 -5 10 0 19 0 19 23 -7z
m254 -20 c0 -4 -5 -8 -12 -8 -6 0 -8 3 -5 7 4 3 -1 16 -10 27 -18 21 -18 21 5
2 12 -11 22 -23 22 -28z m160 39 c0 -2 -8 -11 -18 -20 -15 -14 -19 -15 -19 -2
0 8 4 12 8 9 4 -2 10 0 14 6 6 10 15 14 15 7z m77 -42 c0 -8 -4 -12 -9 -9 -5
4 -7 9 -4 12 3 3 -2 15 -11 26 -18 21 -18 21 3 3 11 -9 21 -24 21 -32z m164
22 c-6 -8 -9 -16 -6 -19 3 -2 -2 -5 -10 -5 -13 0 -13 3 2 19 19 21 31 25 14 5z
m96 -4 c0 -10 -4 -10 -16 -1 -9 7 -18 13 -20 15 -2 1 5 1 16 0 11 0 20 -7 20
-14z m-296 -10 c13 -16 12 -17 -3 -4 -10 7 -18 15 -18 17 0 8 8 3 21 -13z m78
-27 c-3 -3 -11 5 -18 17 -13 21 -12 21 5 5 10 -10 16 -20 13 -22z m161 30 c0
-2 -7 -7 -16 -10 -8 -3 -12 -2 -9 4 6 10 25 14 25 6z m39 -30 c-3 -3 -11 5
-18 17 -13 21 -12 21 5 5 10 -10 16 -20 13 -22z m-861 -1 c-3 -3 -9 2 -12 12
-6 14 -5 15 5 6 7 -7 10 -15 7 -18z m120 0 c-3 -3 -9 2 -12 12 -6 14 -5 15 5
6 7 -7 10 -15 7 -18z m322 21 c0 -2 -8 -10 -17 -17 -16 -13 -17 -12 -4 4 13
16 21 21 21 13z m-546 -29 c1 -8 8 -23 16 -33 14 -18 14 -18 -6 -2 -11 9 -20
27 -21 39 -2 23 7 20 11 -4z m200 14 c3 -5 -2 -15 -12 -22 -15 -12 -16 -12 -5
2 7 9 10 19 6 22 -3 4 -4 7 0 7 3 0 8 -4 11 -9z m76 5 c0 -2 -8 -10 -17 -17
-16 -13 -17 -12 -4 4 13 16 21 21 21 13z m168 -21 c16 -19 16 -19 -3 -3 -11 8
-28 14 -37 13 -10 -2 -20 0 -23 4 -10 17 46 4 63 -14z m167 16 c-9 -8 -36 -10
-30 -2 2 4 11 8 20 8 8 0 13 -3 10 -6z m46 -14 c-10 -9 -11 -8 -5 6 3 10 9 15
12 12 3 -3 0 -11 -7 -18z m280 6 c13 -16 12 -17 -3 -4 -10 7 -18 15 -18 17 0
8 8 3 21 -13z m-851 3 c0 -2 -8 -10 -17 -17 -16 -13 -17 -12 -4 4 13 16 21 21
21 13z m480 0 c0 -2 -8 -10 -17 -17 -16 -13 -17 -12 -4 4 13 16 21 21 21 13z
m-525 -24 c-3 -3 -11 0 -18 7 -9 10 -8 11 6 5 10 -3 15 -9 12 -12z m120 0 c-3
-3 -11 0 -18 7 -9 10 -8 11 6 5 10 -3 15 -9 12 -12z m126 5 c-6 -8 -9 -16 -6
-19 3 -3 -3 -11 -12 -19 -16 -13 -17 -12 -4 4 7 9 10 17 6 17 -4 0 -2 7 5 15
7 8 15 15 17 15 3 0 0 -6 -6 -13z m49 8 c0 -1 -10 -10 -22 -21 -14 -12 -18
-13 -10 -3 6 9 10 18 7 21 -3 2 2 5 10 5 8 0 15 -1 15 -2z m30 -10 c-5 -7 -9
-14 -7 -16 1 -2 0 -3 -2 -2 -2 2 -11 -3 -20 -9 -12 -10 -12 -7 2 8 9 11 15 23
12 26 -3 2 2 5 10 5 10 0 12 -4 5 -12z m330 11 c0 -2 -8 -10 -17 -17 -16 -13
-17 -12 -4 4 13 16 21 21 21 13z m30 -4 c0 -5 -10 -17 -22 -28 -23 -19 -23
-19 -5 2 9 11 14 24 10 27 -3 4 -1 7 5 7 7 0 12 -4 12 -8z m195 -10 c-3 -3
-11 0 -18 7 -9 10 -8 11 6 5 10 -3 15 -9 12 -12z m125 3 c-10 -12 -10 -18 1
-32 12 -17 12 -17 -6 -1 -15 14 -16 20 -5 32 7 9 15 16 17 16 3 0 0 -7 -7 -15z
m75 -3 c-3 -3 -11 0 -18 7 -9 10 -8 11 6 5 10 -3 15 -9 12 -12z m-1018 -7 c0
-8 -3 -13 -5 -10 -3 3 -12 -1 -21 -7 -10 -8 -9 -4 3 10 23 26 23 26 23 7z
m113 0 c-7 -8 -17 -15 -23 -15 -6 0 -2 7 9 15 25 19 30 19 14 0z m367 2 c0 -8
-6 -14 -14 -14 -9 0 -10 4 -2 14 6 7 12 13 14 13 1 0 2 -6 2 -13z m233 -2 c-7
-8 -17 -15 -23 -15 -6 0 -2 7 9 15 25 19 30 19 14 0z m-904 -7 c4 -7 3 -8 -4
-4 -7 4 -12 2 -12 -5 0 -7 -3 -10 -6 -6 -6 5 3 27 11 27 2 0 7 -5 11 -12z
m335 -1 c-6 -8 -9 -16 -6 -19 3 -2 -2 -5 -10 -5 -13 0 -13 3 2 19 19 21 31 25
14 5z m240 0 c-6 -8 -7 -18 -3 -22 4 -5 1 -5 -6 -1 -10 6 -10 11 -1 22 6 8 14
14 16 14 3 0 0 -6 -6 -13z m150 -4 c12 -16 12 -17 -2 -6 -9 7 -20 9 -24 5 -5
-4 -5 -1 -1 6 9 16 11 15 27 -5z m300 -6 c-10 -9 -11 -8 -5 6 3 10 9 15 12 12
3 -3 0 -11 -7 -18z m145 -27 c0 -27 -2 -50 -5 -50 -3 0 -6 23 -7 50 0 28 2 50
5 50 3 0 6 -22 7 -50z m-1158 10 c-7 -10 -14 -17 -17 -15 -4 4 18 35 25 35 2
0 -1 -9 -8 -20z m521 -14 c-3 -3 -11 5 -18 17 -13 21 -12 21 5 5 10 -10 16
-20 13 -22z m81 30 c0 -2 -7 -7 -16 -10 -8 -3 -12 -2 -9 4 6 10 25 14 25 6z
m47 -13 c5 3 9 -3 9 -13 0 -13 -4 -16 -12 -10 -6 6 -15 6 -20 2 -5 -4 -6 -3
-2 2 4 5 2 16 -5 25 -10 14 -10 14 5 3 9 -8 21 -11 25 -9z m278 8 c-9 -8 -36
-10 -30 -2 2 4 11 8 20 8 8 0 13 -3 10 -6z m-749 -20 c0 -11 -4 -17 -9 -14 -4
2 -16 -1 -25 -9 -15 -11 -15 -11 -5 3 7 9 9 20 5 24 -4 5 -2 5 5 1 6 -3 14 -2
18 4 9 14 11 13 11 -9z m80 -7 c1 -9 0 -13 -4 -10 -3 4 -7 14 -8 22 -1 9 0 13
4 10 3 -4 7 -14 8 -22z m128 10 c3 -8 2 -12 -4 -9 -6 3 -10 10 -10 16 0 14 7
11 14 -7z m332 4 c5 4 6 3 2 -2 -4 -5 -2 -16 4 -25 10 -12 7 -12 -8 2 -11 9
-23 15 -26 12 -2 -3 -5 2 -5 10 0 10 4 12 12 5 7 -5 16 -6 21 -2z m265 -5 c13
-16 12 -17 -3 -4 -10 7 -18 15 -18 17 0 8 8 3 21 -13z m115 -9 c1 -9 0 -13 -4
-10 -3 4 -7 14 -8 22 -1 9 0 13 4 10 3 -4 7 -14 8 -22z m120 0 c1 -9 0 -13 -4
-10 -3 4 -7 14 -8 22 -1 9 0 13 4 10 3 -4 7 -14 8 -22z m-1302 -7 c1 -8 8 -23
16 -33 14 -18 14 -18 -6 -2 -11 9 -20 27 -21 39 -2 23 7 20 11 -4z m202 10 c3
-3 -16 -4 -43 -2 -26 1 -55 -2 -63 -9 -13 -9 -13 -9 -2 6 9 11 26 15 58 13 24
-1 47 -5 50 -8z m298 -3 c3 -8 2 -12 -4 -9 -6 3 -10 10 -10 16 0 14 7 11 14
-7z m77 -1 c13 -16 12 -17 -3 -4 -10 7 -18 15 -18 17 0 8 8 3 21 -13z m469 -8
c14 -19 14 -19 -2 -6 -10 7 -18 18 -18 24 0 6 1 8 3 6 1 -2 9 -13 17 -24z
m-1000 -1 c0 -8 -19 -13 -24 -6 -3 5 1 9 9 9 8 0 15 -2 15 -3z m265 -41 c-18
-17 -18 -17 -6 0 11 14 11 20 0 35 -12 16 -12 16 6 0 19 -18 19 -18 0 -35z
m254 13 c-3 -3 -11 5 -18 17 -13 21 -12 21 5 5 10 -10 16 -20 13 -22z m286 24
c-3 -5 -12 -10 -18 -10 -7 0 -6 4 3 10 19 12 23 12 15 0z m45 5 c0 -1 -10 -10
-22 -21 -14 -12 -18 -13 -10 -3 6 9 10 18 7 21 -3 2 2 5 10 5 8 0 15 -1 15 -2z
m195 -5 c-3 -5 -12 -10 -18 -10 -7 0 -6 4 3 10 19 12 23 12 15 0z m45 5 c0 -1
-10 -10 -22 -21 -14 -12 -18 -13 -10 -3 6 9 10 18 7 21 -3 2 2 5 10 5 8 0 15
-1 15 -2z m149 -29 c-3 -3 -11 5 -18 17 -13 21 -12 21 5 5 10 -10 16 -20 13
-22z m-1219 20 c0 -2 -8 -10 -17 -17 -16 -13 -17 -12 -4 4 13 16 21 21 21 13z
m81 -13 c13 -16 12 -17 -3 -4 -10 7 -18 15 -18 17 0 8 8 3 21 -13z m272 2 c-3
-9 -8 -14 -10 -11 -3 3 -2 9 2 15 9 16 15 13 8 -4z m79 0 c2 3 5 -2 5 -10 0
-19 0 -19 -23 7 -12 14 -13 18 -3 10 9 -6 18 -10 21 -7z m152 -6 c-10 -12 -18
-24 -17 -28 1 -3 0 -8 -2 -9 -2 -2 -3 3 -1 11 2 16 25 47 34 47 3 0 -3 -9 -14
-21z m88 6 c2 3 5 -2 5 -10 0 -19 0 -19 -23 7 -12 14 -13 18 -3 10 9 -6 18
-10 21 -7z m47 2 c8 -10 7 -14 -2 -14 -8 0 -14 6 -14 14 0 7 1 13 2 13 2 0 8
-6 14 -13z m247 -9 c12 -14 13 -18 3 -10 -9 6 -18 10 -21 7 -2 -3 -5 2 -5 10
0 19 0 19 23 -7z m354 19 c0 -2 -10 -12 -22 -23 l-23 -19 19 23 c18 21 26 27
26 19z m-1299 -20 c-6 -8 -9 -16 -6 -19 3 -2 -2 -5 -10 -5 -13 0 -13 3 2 19
19 21 31 25 14 5z m176 -4 c0 -9 -4 -10 -14 -2 -7 6 -13 12 -13 14 0 1 6 2 13
2 8 0 14 -6 14 -14z m701 -7 c16 -20 16 -20 -2 -6 -24 19 -47 21 -66 7 -13
-10 -13 -10 -2 5 17 22 48 19 70 -6z m201 21 c-2 -1 -13 -9 -24 -17 -19 -14
-19 -14 -6 3 7 9 18 17 24 17 6 0 8 -1 6 -3z m242 -10 c-6 -8 -7 -18 -3 -22 4
-5 1 -5 -6 -1 -10 6 -10 11 -1 22 6 8 14 14 16 14 3 0 0 -6 -6 -13z m-1486 -6
c3 -5 2 -12 -3 -15 -5 -3 -9 1 -9 9 0 17 3 19 12 6z m1160 -1 c-3 -5 -12 -10
-18 -10 -7 0 -6 4 3 10 19 12 23 12 15 0z m362 -3 c0 -8 -6 -14 -14 -14 -9 0
-10 4 -2 14 6 7 12 13 14 13 1 0 2 -6 2 -13z m-1313 -5 c2 -4 -4 -8 -14 -8
-10 0 -16 4 -14 8 3 4 9 8 14 8 5 0 11 -4 14 -8z m341 -39 c-18 -17 -18 -17
-6 0 11 14 11 20 0 35 -12 16 -12 16 6 0 19 -18 19 -18 0 -35z m215 43 c0 -2
-7 -7 -16 -10 -8 -3 -12 -2 -9 4 6 10 25 14 25 6z m53 -21 c4 3 5 2 2 -2 -3
-4 -13 -8 -21 -9 -9 -1 -13 0 -10 3 3 4 0 13 -6 22 -10 12 -7 12 8 -2 11 -9
24 -15 27 -12z m67 10 c-10 -12 -10 -18 1 -32 13 -17 13 -17 -7 0 -11 9 -23
15 -26 12 -2 -3 -5 1 -5 9 0 8 6 12 13 9 6 -2 15 0 19 6 3 6 9 11 12 11 3 0 0
-7 -7 -15z m370 11 c0 -2 -8 -10 -17 -17 -16 -13 -17 -12 -4 4 13 16 21 21 21
13z m35 -6 c3 -6 -1 -7 -9 -4 -18 7 -21 14 -7 14 6 0 13 -4 16 -10z m-865 -4
c0 -2 -8 -10 -17 -17 -16 -13 -17 -12 -4 4 13 16 21 21 21 13z m74 -26 c-6 -6
-10 -3 -10 10 0 13 4 16 10 10 7 -7 7 -13 0 -20z m166 26 c0 -2 -8 -10 -17
-17 -16 -13 -17 -12 -4 4 13 16 21 21 21 13z m276 -16 c0 -12 -4 -16 -9 -11
-5 5 -6 14 -3 20 10 15 12 14 12 -9z m78 -10 c-6 -6 -10 -3 -10 10 0 13 4 16
10 10 7 -7 7 -13 0 -20z m102 18 c5 4 6 3 2 -2 -4 -5 -2 -16 4 -25 10 -12 7
-12 -8 2 -11 9 -23 15 -26 12 -2 -3 -5 2 -5 10 0 10 4 12 12 5 7 -5 16 -6 21
-2z m60 -8 c0 -12 -4 -16 -9 -11 -5 5 -6 14 -3 20 10 15 12 14 12 -9z m204 16
c0 -2 -8 -10 -17 -17 -16 -13 -17 -12 -4 4 13 16 21 21 21 13z m79 -9 c8 -10
7 -14 -2 -14 -8 0 -14 6 -14 14 0 7 1 13 2 13 2 0 8 -6 14 -13z m-1343 -10 c3
-3 -15 -4 -41 -2 -25 1 -48 5 -51 8 -3 3 15 4 41 2 25 -1 48 -5 51 -8z m641 6
c-4 -3 -1 -13 6 -22 11 -14 10 -14 -5 -2 -16 12 -16 31 -1 31 4 0 3 -3 0 -7z
m494 -16 c-10 -9 -11 -8 -5 6 3 10 9 15 12 12 3 -3 0 -11 -7 -18z m-1016 4 c3
-5 2 -12 -3 -15 -5 -3 -9 1 -9 9 0 17 3 19 12 6z m461 -3 c4 -7 3 -8 -5 -4 -6
4 -20 2 -29 -6 -15 -12 -16 -11 -3 5 16 20 27 22 37 5z m-701 -6 c-3 -3 0 -11
6 -19 17 -20 5 -16 -14 5 -15 16 -15 19 -2 19 8 0 13 -3 10 -5z m1043 -12 c-7
-10 -14 -17 -17 -15 -4 4 18 35 25 35 2 0 -1 -9 -8 -20z m237 0 c-20 -22 -35
-26 -35 -9 0 5 4 8 9 5 5 -3 14 1 21 9 7 8 15 15 18 15 3 0 -3 -9 -13 -20z
m-1335 6 c0 -2 -8 -10 -17 -17 -16 -13 -17 -12 -4 4 13 16 21 21 21 13z m140
-38 c0 -4 -5 -8 -12 -8 -6 0 -8 3 -5 7 4 3 -1 16 -10 27 -18 21 -18 21 5 2 12
-11 22 -23 22 -28z m88 25 c-8 -10 -14 -28 -13 -40 1 -12 -2 -20 -7 -17 -16
10 10 74 30 74 3 0 -2 -8 -10 -17z m409 2 c0 -8 -3 -13 -5 -10 -3 3 -12 -1
-21 -7 -10 -8 -9 -4 3 10 23 26 23 26 23 7z m63 12 c0 -2 -8 -11 -18 -20 -15
-14 -19 -15 -19 -2 0 8 4 12 8 9 4 -2 10 0 14 6 6 10 15 14 15 7z m114 -26
c-2 -3 -12 3 -22 13 -16 17 -16 18 5 5 12 -7 20 -15 17 -18z m112 7 c12 -14
13 -18 3 -10 -9 6 -18 10 -21 7 -2 -3 -5 2 -5 10 0 19 0 19 23 -7z m233 9 c8
-10 7 -14 -2 -14 -8 0 -14 6 -14 14 0 7 1 13 2 13 2 0 8 -6 14 -13z m270 10
c-2 -1 -13 -10 -25 -20 -17 -14 -21 -14 -21 -2 0 8 4 12 8 9 4 -2 10 0 14 6 3
5 11 10 17 10 6 0 9 -1 7 -3z m99 -20 c17 -18 19 -24 7 -24 -8 0 -13 3 -10 5
3 3 -2 14 -12 24 -24 27 -10 22 15 -5z m46 -6 c-2 -3 -12 3 -22 13 -16 17 -16
18 5 5 12 -7 20 -15 17 -18z m-1623 2 c13 -16 12 -17 -3 -4 -10 7 -18 15 -18
17 0 8 8 3 21 -13z m80 0 c13 -16 12 -17 -3 -4 -10 7 -18 15 -18 17 0 8 8 3
21 -13z m742 -1 c15 -16 15 -19 2 -19 -8 0 -13 3 -10 5 3 3 0 11 -6 19 -17 20
-5 16 14 -5z m476 4 c9 -11 9 -16 -1 -22 -7 -4 -10 -4 -6 1 4 4 3 14 -3 22 -6
7 -9 13 -6 13 2 0 10 -6 16 -14z m244 -4 c15 -16 15 -19 2 -19 -8 0 -13 3 -10
5 3 3 0 11 -6 19 -17 20 -5 16 14 -5z m197 13 c0 -2 -6 -8 -13 -14 -10 -8 -14
-7 -14 2 0 8 6 14 14 14 7 0 13 -1 13 -2z m-1589 -22 c13 -16 12 -17 -3 -4
-10 7 -18 15 -18 17 0 8 8 3 21 -13z m597 -13 c-7 -10 -14 -17 -17 -15 -4 4
18 35 25 35 2 0 -1 -9 -8 -20z m47 10 c3 -6 -1 -7 -9 -4 -18 7 -21 14 -7 14 6
0 13 -4 16 -10z m239 1 c4 -5 -3 -7 -14 -4 -23 6 -26 13 -6 13 8 0 17 -4 20
-9z m206 6 c0 -2 -8 -12 -19 -21 -16 -15 -19 -15 -24 -2 -4 10 -1 13 7 10 8
-3 17 -1 21 5 6 11 15 15 15 8z m35 -7 c3 -6 -1 -7 -9 -4 -18 7 -21 14 -7 14
6 0 13 -4 16 -10z m196 -3 c-6 -8 -9 -17 -6 -20 3 -4 2 -5 -2 -2 -3 3 -11 0
-18 -5 -8 -7 -12 -5 -12 5 0 8 4 12 8 10 3 -3 12 2 19 10 7 8 15 15 17 15 3 0
0 -6 -6 -13z m44 3 c3 -6 -1 -7 -9 -4 -18 7 -21 14 -7 14 6 0 13 -4 16 -10z
m160 1 c-9 -8 -36 -10 -30 -2 2 4 11 8 20 8 8 0 13 -3 10 -6z m-1544 -18 c13
-16 12 -17 -3 -4 -10 7 -18 15 -18 17 0 8 8 3 21 -13z m755 2 c-1 -8 -5 -17
-8 -21 -5 -4 -4 16 1 34 3 9 9 -1 7 -13z m78 -15 c-6 -6 -10 -3 -10 10 0 13 4
16 10 10 7 -7 7 -13 0 -20z m181 -8 c-3 -3 3 -15 12 -26 18 -21 18 -21 -5 -2
-12 11 -20 21 -17 24 3 3 -3 15 -12 26 -18 21 -18 21 5 2 12 -11 20 -21 17
-24z m-1039 6 c14 -17 15 -20 2 -9 -9 7 -22 10 -27 6 -7 -3 -8 0 -5 9 8 20 7
20 30 -6z m674 18 c0 -2 -8 -10 -17 -17 -16 -13 -17 -12 -4 4 13 16 21 21 21
13z m330 -21 c14 -19 14 -19 -2 -6 -10 7 -18 18 -18 24 0 6 1 8 3 6 1 -2 9
-13 17 -24z m150 21 c0 -2 -8 -10 -17 -17 -16 -13 -17 -12 -4 4 13 16 21 21
21 13z m455 -5 c-9 -8 -36 -10 -30 -2 2 4 11 8 20 8 8 0 13 -3 10 -6z m-49
-27 c1 -9 0 -13 -4 -10 -3 4 -7 14 -8 22 -1 9 0 13 4 10 3 -4 7 -14 8 -22z
m-1626 13 c0 -2 -10 -12 -22 -23 l-23 -19 19 23 c18 21 26 27 26 19z m305 -5
c-3 -3 0 -11 6 -19 17 -20 5 -16 -14 5 -15 16 -15 19 -2 19 8 0 13 -3 10 -5z
m41 -28 c1 -9 -1 -13 -4 -9 -4 4 -7 10 -7 13 0 4 -4 14 -9 22 -7 12 -6 13 4 3
8 -7 15 -20 16 -29z m522 16 c-7 -10 -14 -17 -17 -15 -4 4 18 35 25 35 2 0 -1
-9 -8 -20z m363 7 c-6 -8 -9 -16 -6 -19 3 -3 -3 -11 -12 -19 -16 -13 -17 -12
-4 4 7 9 10 17 6 17 -4 0 -2 7 5 15 7 8 15 15 17 15 3 0 0 -6 -6 -13z m49 8
c0 -1 -10 -10 -22 -21 -14 -12 -18 -13 -10 -3 6 9 10 18 7 21 -3 2 2 5 10 5 8
0 15 -1 15 -2z m-1064 -27 c12 -14 13 -18 3 -10 -9 6 -18 10 -21 7 -2 -3 -5 2
-5 10 0 19 0 19 23 -7z m474 18 c0 -2 -8 -10 -17 -17 -16 -13 -17 -12 -4 4 13
16 21 21 21 13z m97 -41 c0 -8 -4 -12 -9 -9 -5 4 -7 9 -4 12 3 3 -2 15 -11 26
-18 21 -18 21 3 3 11 -9 21 -24 21 -32z m163 42 c0 -2 -8 -11 -18 -20 -15 -14
-19 -15 -19 -2 0 8 4 12 8 9 4 -2 10 0 14 6 6 10 15 14 15 7z m58 -22 c-3 -3
-9 2 -12 12 -6 14 -5 15 5 6 7 -7 10 -15 7 -18z m162 21 c0 -2 -8 -10 -17 -17
-16 -13 -17 -12 -4 4 13 16 21 21 21 13z m334 -25 c-2 -3 -12 3 -22 13 -16 17
-16 18 5 5 12 -7 20 -15 17 -18z m-1444 14 c0 -2 -6 -8 -13 -14 -10 -8 -14 -7
-14 2 0 8 6 14 14 14 7 0 13 -1 13 -2z m106 -7 c4 -7 4 -10 -1 -6 -4 4 -15 2
-24 -5 -14 -11 -14 -10 -2 6 16 20 18 21 27 5z m115 -5 c13 -17 13 -17 -6 -3
-11 8 -22 16 -24 17 -2 2 0 3 6 3 6 0 17 -8 24 -17z m910 4 c-6 -8 -9 -16 -6
-19 3 -2 -2 -5 -10 -5 -13 0 -13 3 2 19 19 21 31 25 14 5z m157 -12 c17 -19
16 -20 -3 -4 -11 9 -30 15 -42 14 -12 -1 -20 2 -17 6 8 14 45 5 62 -16z m34
-2 c-1 -4 7 -17 16 -28 17 -20 17 -20 -4 -2 -11 9 -21 24 -21 32 0 8 2 13 5
11 2 -2 4 -8 4 -13z m89 0 c13 -16 12 -17 -3 -4 -10 7 -18 15 -18 17 0 8 8 3
21 -13z m-1391 3 c0 -2 -8 -10 -17 -17 -16 -13 -17 -12 -4 4 13 16 21 21 21
13z m28 -15 c-7 -9 -13 -18 -15 -20 -1 -2 -1 5 0 16 0 11 7 20 14 20 10 0 10
-4 1 -16z m157 -9 c-3 -3 1 -12 8 -21 11 -14 10 -14 -6 -2 -9 8 -15 16 -12 19
3 3 -1 12 -8 21 -11 14 -10 14 6 2 9 -8 15 -16 12 -19z m695 24 c0 -2 -8 -10
-17 -17 -16 -13 -17 -12 -4 4 13 16 21 21 21 13z m133 -21 c9 2 17 -1 17 -5 0
-16 -41 -6 -58 15 -17 19 -16 20 3 4 11 -9 28 -15 38 -14z m462 16 c-9 -8 -36
-10 -30 -2 2 4 11 8 20 8 8 0 13 -3 10 -6z m-1395 -16 c-7 -9 -15 -13 -18 -10
-3 3 -12 -1 -21 -8 -14 -11 -14 -10 -2 5 7 10 17 16 21 13 5 -3 11 -1 15 5 3
5 9 10 12 10 3 0 0 -7 -7 -15z m48 -10 c-3 -3 -9 2 -12 12 -6 14 -5 15 5 6 7
-7 10 -15 7 -18z m117 16 c3 -5 2 -12 -3 -15 -5 -3 -9 1 -9 9 0 17 3 19 12 6z
m520 0 c3 -5 2 -12 -3 -15 -5 -3 -9 1 -9 9 0 17 3 19 12 6z m405 5 c0 -2 -8
-10 -17 -17 -16 -13 -17 -12 -4 4 13 16 21 21 21 13z m214 -25 c-2 -3 -12 3
-22 13 -16 17 -16 18 5 5 12 -7 20 -15 17 -18z m139 14 c-3 -9 -8 -14 -10 -11
-3 3 -2 9 2 15 9 16 15 13 8 -4z m83 -11 c1 -9 0 -13 -4 -10 -3 4 -7 14 -8 22
-1 9 0 13 4 10 3 -4 7 -14 8 -22z m-1642 0 c3 -8 2 -12 -4 -9 -6 3 -10 10 -10
16 0 14 7 11 14 -7z m936 12 c0 -2 -8 -10 -17 -17 -16 -13 -17 -12 -4 4 13 16
21 21 21 13z m276 -24 c-17 -16 -18 -16 -5 5 7 12 15 20 18 17 3 -2 -3 -12
-13 -22z m371 21 c-4 -3 -1 -13 6 -22 11 -14 10 -14 -5 -2 -16 12 -16 31 -1
31 4 0 3 -3 0 -7z m-1437 -7 c0 -2 -8 -10 -17 -17 -16 -13 -17 -12 -4 4 13 16
21 21 21 13z m680 0 c0 -2 -8 -10 -17 -17 -16 -13 -17 -12 -4 4 13 16 21 21
21 13z m-849 -23 c13 -16 12 -17 -3 -4 -10 7 -18 15 -18 17 0 8 8 3 21 -13z
m979 13 c0 -2 -8 -10 -17 -17 -16 -13 -17 -12 -4 4 13 16 21 21 21 13z m373
-21 c11 2 16 1 13 -3 -14 -13 -36 -9 -53 11 -18 22 -18 22 2 6 11 -9 28 -15
38 -14z m-1223 12 c0 -2 -8 -11 -18 -20 -15 -14 -19 -15 -19 -2 0 8 4 12 8 9
4 -2 10 0 14 6 6 10 15 14 15 7z m50 -12 c-7 -8 -17 -15 -23 -15 -6 0 -2 7 9
15 25 19 30 19 14 0z m64 -14 c-2 -3 -12 3 -22 13 -16 17 -16 18 5 5 12 -7 20
-15 17 -18z m112 7 c12 -14 13 -18 3 -10 -9 6 -18 10 -21 7 -2 -3 -5 2 -5 10
0 19 0 19 23 -7z m511 9 c0 -8 -6 -14 -14 -14 -9 0 -10 4 -2 14 6 7 12 13 14
13 1 0 2 -6 2 -13z m233 -2 c-7 -8 -17 -15 -23 -15 -6 0 -2 7 9 15 25 19 30
19 14 0z m83 0 c-3 -9 -8 -14 -10 -11 -3 3 -2 9 2 15 9 16 15 13 8 -4z m83 -4
c0 -16 -3 -17 -14 -9 -12 10 -7 19 13 28 1 0 1 -9 1 -19z m161 4 c0 -8 -3 -13
-5 -10 -3 3 -12 -1 -21 -7 -10 -8 -9 -4 3 10 23 26 23 26 23 7z m114 1 c-7 -8
-20 -13 -29 -11 -9 1 -26 -5 -37 -14 -20 -16 -20 -16 -2 6 11 12 27 20 38 18
10 -2 21 0 24 6 4 5 9 9 12 9 3 0 0 -6 -6 -14z m31 -9 c-7 -8 -10 -16 -7 -19
3 -2 -1 -5 -9 -5 -12 0 -11 5 2 23 9 12 19 20 21 18 2 -2 -1 -10 -7 -17z m90
8 c2 3 5 -2 5 -10 0 -19 0 -19 -23 7 -12 14 -13 18 -3 10 9 -6 18 -10 21 -7z
m-1681 -12 c13 -17 13 -17 -6 -3 -11 8 -22 16 -24 17 -2 2 0 3 6 3 6 0 17 -8
24 -17z m1040 0 c13 -16 12 -17 -3 -4 -15 11 -21 11 -35 0 -16 -13 -17 -12 -4
4 7 9 17 17 21 17 4 0 14 -8 21 -17z m-808 -6 c3 -7 -3 -13 -14 -13 -13 0 -15
3 -7 13 6 7 12 13 13 13 2 0 5 -6 8 -13z m-158 -7 c3 -6 -1 -7 -9 -4 -18 7
-21 14 -7 14 6 0 13 -4 16 -10z m875 6 c0 -2 -7 -7 -16 -10 -8 -3 -12 -2 -9 4
6 10 25 14 25 6z m205 -5 c-9 -8 -36 -10 -30 -2 2 4 11 8 20 8 8 0 13 -3 10
-6z m114 -25 c-3 -3 -11 5 -18 17 -13 21 -12 21 5 5 10 -10 16 -20 13 -22z
m361 30 c0 -2 -7 -7 -16 -10 -8 -3 -12 -2 -9 4 6 10 25 14 25 6z m31 -13 c13
-16 12 -17 -3 -4 -10 7 -18 15 -18 17 0 8 8 3 21 -13z m-1495 -19 c1 -9 0 -13
-4 -10 -3 4 -7 14 -8 22 -1 9 0 13 4 10 3 -4 7 -14 8 -22z m217 12 c3 3 4 -2
2 -13 -1 -10 5 -27 14 -38 16 -20 16 -20 -7 -1 -12 11 -20 21 -17 24 3 3 -3
15 -12 26 -14 15 -14 18 -2 8 9 -6 18 -9 22 -6z m839 -1 c3 3 11 -3 19 -12 12
-16 12 -17 -2 -6 -9 7 -18 11 -21 8 -3 -3 -11 3 -19 12 -12 16 -12 17 2 6 9
-7 18 -11 21 -8z m221 0 c-3 -9 -8 -14 -10 -11 -3 3 -2 9 2 15 9 16 15 13 8
-4z m80 0 c-3 -9 -8 -14 -10 -11 -3 3 -2 9 2 15 9 16 15 13 8 -4z m-1459 -4
c3 -5 -2 -15 -12 -22 -15 -12 -16 -12 -5 2 7 9 10 19 6 22 -3 4 -4 7 0 7 3 0
8 -4 11 -9z m1126 -16 c14 -19 14 -19 -2 -6 -10 7 -18 18 -18 24 0 6 1 8 3 6
1 -2 9 -13 17 -24z m-204 -11 c1 -9 0 -13 -4 -10 -3 4 -7 14 -8 22 -1 9 0 13
4 10 3 -4 7 -14 8 -22z m361 11 c0 -8 -10 -23 -21 -32 -21 -18 -21 -18 -2 5
11 12 16 22 12 22 -4 0 -4 5 -1 10 9 14 12 13 12 -5z m43 11 c0 -2 -8 -10 -17
-17 -16 -13 -17 -12 -4 4 13 16 21 21 21 13z m-1405 -14 c-3 -3 0 -11 6 -19
17 -20 5 -16 -14 5 -15 16 -15 19 -2 19 8 0 13 -3 10 -5z m40 -10 c-3 -3 -11
0 -18 7 -9 10 -8 11 6 5 10 -3 15 -9 12 -12z m137 -6 c3 3 8 1 12 -4 11 -18
-25 -8 -41 12 -18 21 -18 21 3 3 11 -9 23 -14 26 -11z m194 12 c3 -4 -1 -5
-10 -4 -8 1 -18 5 -22 8 -3 4 1 5 10 4 8 -1 18 -5 22 -8z m69 -6 c-3 -3 -11 0
-18 7 -9 10 -8 11 6 5 10 -3 15 -9 12 -12z m600 10 c-3 -3 0 -11 6 -19 17 -20
5 -16 -14 5 -15 16 -15 19 -2 19 8 0 13 -3 10 -5z m34 -6 c9 -11 9 -16 -1 -22
-7 -4 -10 -4 -6 1 4 4 3 14 -3 22 -6 7 -9 13 -6 13 2 0 10 -6 16 -14z m256 5
c-9 -8 -36 -10 -30 -2 2 4 11 8 20 8 8 0 13 -3 10 -6z m365 6 c0 -2 -10 -12
-22 -23 l-23 -19 19 23 c18 21 26 27 26 19z m-1593 -22 c0 -8 -3 -13 -5 -10
-3 3 -12 -1 -21 -7 -10 -8 -9 -4 3 10 23 26 23 26 23 7z m147 -6 c-10 -12 -18
-24 -17 -28 1 -3 0 -8 -2 -9 -2 -2 -3 3 -1 11 2 16 25 47 34 47 3 0 -3 -9 -14
-21z m942 -1 c12 -14 13 -18 3 -10 -9 6 -18 10 -21 7 -2 -3 -5 2 -5 10 0 19 0
19 23 -7z m234 18 c0 -2 -8 -10 -17 -17 -16 -13 -17 -12 -4 4 13 16 21 21 21
13z m56 -8 c5 4 6 3 2 -2 -4 -5 -4 -14 2 -20 6 -8 2 -12 -13 -13 -12 0 -16 1
-9 4 10 4 9 10 -5 26 -12 15 -13 18 -2 9 9 -6 20 -8 25 -4z m72 -11 c17 -18
19 -24 7 -24 -8 0 -13 3 -10 5 3 3 -2 14 -12 24 -24 27 -10 22 15 -5z m46 -6
c-2 -3 -12 3 -22 13 -16 17 -16 18 5 5 12 -7 20 -15 17 -18z m-1623 2 c13 -16
12 -17 -3 -4 -10 7 -18 15 -18 17 0 8 8 3 21 -13z m348 14 c-2 -1 -13 -9 -24
-17 -19 -14 -19 -14 -6 3 7 9 18 17 24 17 6 0 8 -1 6 -3z m796 -17 c10 -11 16
-20 13 -20 -3 0 -13 9 -23 20 -10 11 -16 20 -13 20 3 0 13 -9 23 -20z m158 2
c15 -16 15 -19 2 -19 -8 0 -13 3 -10 5 3 3 0 11 -6 19 -17 20 -5 16 14 -5z
m240 0 c15 -16 15 -19 2 -19 -8 0 -13 3 -10 5 3 3 0 11 -6 19 -17 20 -5 16 14
-5z m-76 -5 c0 -8 -6 -14 -14 -14 -9 0 -10 4 -2 14 6 7 12 13 14 13 1 0 2 -6
2 -13z m203 9 c0 -2 -8 -10 -17 -17 -16 -13 -17 -12 -4 4 13 16 21 21 21 13z
m-1590 -9 c0 -2 -10 -13 -23 -25 -21 -20 -23 -20 -23 -3 0 10 6 17 12 14 7 -2
15 0 19 6 6 10 15 15 15 8z m1040 -1 c0 -2 -8 -10 -17 -17 -16 -13 -17 -12 -4
4 13 16 21 21 21 13z m156 -8 c3 -4 -1 -5 -10 -4 -8 1 -18 5 -22 8 -3 4 1 5
10 4 8 -1 18 -5 22 -8z m-1052 -27 c-2 -3 -12 3 -22 13 -16 17 -16 18 5 5 12
-7 20 -15 17 -18z m980 -1 c-6 -6 -10 -3 -10 10 0 13 4 16 10 10 7 -7 7 -13 0
-20z m223 15 c0 -8 -4 -12 -9 -9 -5 3 -6 10 -3 15 9 13 12 11 12 -6z m253 0
c-7 -8 -17 -15 -23 -15 -6 0 -2 7 9 15 25 19 30 19 14 0z m-1519 -12 c13 -16
12 -17 -3 -4 -10 7 -18 15 -18 17 0 8 8 3 21 -13z m325 5 c4 -7 4 -10 -1 -6
-4 4 -15 2 -24 -5 -14 -11 -14 -10 -2 6 16 20 18 21 27 5z m1254 8 c0 -2 -8
-10 -17 -17 -16 -13 -17 -12 -4 4 13 16 21 21 21 13z m-470 -10 c0 -2 -7 -9
-15 -16 -13 -11 -14 -10 -9 4 5 14 24 23 24 12z m-1190 -10 c0 -2 -8 -10 -17
-17 -16 -13 -17 -12 -4 4 13 16 21 21 21 13z m82 -21 c3 3 13 -5 24 -17 19
-23 19 -23 -2 -5 -11 9 -23 15 -26 12 -3 -3 -13 5 -24 17 -19 23 -19 23 2 5
11 -9 23 -15 26 -12z m183 17 c-3 -3 0 -11 6 -19 17 -20 5 -16 -14 5 -15 16
-15 19 -2 19 8 0 13 -3 10 -5z m47 1 c-10 -4 -9 -10 5 -26 12 -15 13 -18 2 -9
-9 6 -20 8 -25 4 -5 -4 -6 -3 -2 2 4 5 4 14 -2 20 -6 8 -2 12 13 13 12 0 16
-1 9 -4z m48 2 c0 -2 -6 -8 -13 -14 -10 -8 -14 -7 -14 2 0 8 6 14 14 14 7 0
13 -1 13 -2z m945 -3 c-3 -3 0 -11 6 -19 17 -20 5 -16 -14 5 -15 16 -15 19 -2
19 8 0 13 -3 10 -5z m122 1 c-4 -3 1 -16 10 -27 14 -15 14 -18 2 -8 -9 6 -18
9 -22 6 -3 -3 -4 2 -2 13 5 24 4 23 12 23 3 0 3 -3 0 -7z m38 -1 c-3 -3 0 -11
6 -19 17 -20 5 -16 -14 5 -15 16 -15 19 -2 19 8 0 13 -3 10 -5z m34 -6 c9 -11
9 -16 -1 -22 -7 -4 -10 -4 -6 1 4 4 3 14 -3 22 -6 7 -9 13 -6 13 2 0 10 -6 16
-14z m-1323 -18 c12 -14 13 -18 3 -10 -9 6 -18 10 -21 7 -2 -3 -5 2 -5 10 0
19 0 19 23 -7z m971 7 c0 -8 -4 -12 -9 -9 -5 3 -6 10 -3 15 9 13 12 11 12 -6z
m96 0 c-3 -9 -8 -14 -10 -11 -3 3 -2 9 2 15 9 16 15 13 8 -4z m-1214 2 c-2 -1
-13 -9 -24 -17 -19 -14 -19 -14 -6 3 7 9 18 17 24 17 6 0 8 -1 6 -3z m212 -14
c13 -17 13 -17 -6 -3 -11 8 -22 16 -24 17 -2 2 0 3 6 3 6 0 17 -8 24 -17z
m139 13 c0 -2 -8 -10 -17 -17 -16 -13 -17 -12 -4 4 13 16 21 21 21 13z m70 0
c0 -3 -4 -8 -10 -11 -5 -3 -10 -1 -10 4 0 6 5 11 10 11 6 0 10 -2 10 -4z m831
-13 c12 -16 12 -17 -2 -6 -9 7 -20 9 -24 5 -5 -4 -5 -1 -1 6 9 16 11 15 27 -5z
m-1056 -21 c-3 -3 -11 0 -18 7 -9 10 -8 11 6 5 10 -3 15 -9 12 -12z m1286 5
c-6 -8 -9 -16 -6 -19 3 -3 -3 -11 -12 -19 -15 -11 -16 -11 -6 1 10 11 9 16 -5
27 -15 11 -15 12 -1 7 10 -3 20 -1 24 5 3 6 9 11 12 11 3 0 0 -6 -6 -13z m44
3 c3 -6 -1 -7 -9 -4 -18 7 -21 14 -7 14 6 0 13 -4 16 -10z m104 -4 c9 -11 9
-16 -1 -22 -7 -4 -10 -4 -6 1 4 4 3 14 -3 22 -6 7 -9 13 -6 13 2 0 10 -6 16
-14z m-1713 -8 c5 4 6 3 2 -2 -4 -5 -2 -16 4 -25 10 -12 7 -12 -8 2 -11 9 -23
15 -26 12 -2 -3 -5 2 -5 10 0 10 4 12 12 5 7 -5 16 -6 21 -2z m142 -13 c-3 -3
-9 2 -12 12 -6 14 -5 15 5 6 7 -7 10 -15 7 -18z m80 0 c-3 -3 -9 2 -12 12 -6
14 -5 15 5 6 7 -7 10 -15 7 -18z m296 -4 c-2 -3 -12 3 -22 13 -16 17 -16 18 5
5 12 -7 20 -15 17 -18z m867 -13 c-11 -11 -13 -10 -7 0 4 7 2 21 -5 30 -12 15
-11 15 6 0 16 -15 17 -20 6 -30z m-1090 9 c-10 -9 -11 -8 -5 6 3 10 9 15 12
12 3 -3 0 -11 -7 -18z m80 0 c-10 -9 -11 -8 -5 6 3 10 9 15 12 12 3 -3 0 -11
-7 -18z m960 0 c-10 -9 -11 -8 -5 6 3 10 9 15 12 12 3 -3 0 -11 -7 -18z m99
19 c0 -2 -8 -10 -17 -17 -16 -13 -17 -12 -4 4 13 16 21 21 21 13z m61 -19
c-10 -9 -11 -8 -5 6 3 10 9 15 12 12 3 -3 0 -11 -7 -18z m166 9 c0 -8 -6 -12
-15 -9 -11 5 -11 7 0 14 7 5 13 9 14 9 0 0 1 -6 1 -14z m-1612 -16 c-3 -5 -12
-10 -18 -10 -7 0 -6 4 3 10 19 12 23 12 15 0z m45 5 c0 -1 -10 -10 -22 -21
-14 -12 -18 -13 -10 -3 6 9 10 18 7 21 -3 2 2 5 10 5 8 0 15 -1 15 -2z m227
-13 c-21 -23 -52 -25 -69 -4 -11 15 -11 15 2 5 18 -14 45 -12 62 5 19 19 23
14 5 -6z m1121 -2 c-7 -10 -14 -17 -17 -15 -4 4 18 35 25 35 2 0 -1 -9 -8 -20z
m-1434 -29 c-2 -2 -10 1 -17 7 -8 7 -16 10 -19 7 -2 -3 -5 1 -5 9 0 12 5 11
23 -2 12 -9 20 -19 18 -21z m126 24 c-7 -9 -15 -13 -18 -10 -3 3 -12 -1 -21
-8 -14 -11 -14 -10 -2 5 7 10 17 16 21 13 5 -3 11 -1 15 5 3 5 9 10 12 10 3 0
0 -7 -7 -15z m76 -4 c-13 -15 -14 -20 -4 -24 7 -3 3 -4 -9 -4 -15 1 -19 5 -13
13 6 6 6 15 2 19 -4 5 -2 5 5 1 6 -3 14 -2 18 4 3 5 9 10 12 10 3 0 -2 -9 -11
-19z m194 16 c0 -2 -8 -11 -18 -20 -15 -14 -19 -15 -19 -2 0 8 4 12 8 9 4 -2
10 0 14 6 6 10 15 14 15 7z m119 -10 c8 -10 7 -14 -2 -14 -8 0 -14 6 -14 14 0
7 1 13 2 13 2 0 8 -6 14 -13z m1001 10 c0 -2 -8 -11 -18 -20 -15 -14 -19 -15
-19 -2 0 8 4 12 8 9 4 -2 10 0 14 6 6 10 15 14 15 7z m47 -15 c-10 -10 -15
-21 -12 -24 3 -3 -5 -13 -17 -24 l-23 -19 19 23 c11 12 15 22 11 22 -4 0 0 9
10 20 10 11 20 20 23 20 3 0 -2 -8 -11 -18z m137 -1 c14 -15 15 -21 4 -27 -7
-4 -10 -3 -5 1 4 5 0 17 -10 27 -9 10 -14 18 -11 18 3 0 13 -9 22 -19z m-1543
-4 c-6 -8 -9 -16 -6 -19 3 -2 -2 -5 -10 -5 -13 0 -13 3 2 19 19 21 31 25 14 5z
m316 -11 c18 -21 18 -21 -2 -5 -11 9 -28 15 -38 14 -9 -2 -15 0 -12 4 8 14 35
8 52 -13z m1124 11 c-6 -8 -9 -16 -6 -19 3 -2 -2 -5 -10 -5 -13 0 -13 3 2 19
19 21 31 25 14 5z m72 -5 c15 -16 15 -19 2 -19 -8 0 -13 3 -10 5 3 3 0 11 -6
19 -17 20 -5 16 14 -5z m-1434 -5 c8 -10 7 -14 -2 -14 -8 0 -14 6 -14 14 0 7
1 13 2 13 2 0 8 -6 14 -13z m1291 -1 c0 -2 -8 -10 -17 -17 -16 -13 -17 -12 -4
4 13 16 21 21 21 13z m114 -4 c2 -4 -4 -8 -14 -8 -10 0 -16 4 -14 8 3 4 9 8
14 8 5 0 11 -4 14 -8z m-1524 -5 c0 -2 -8 -11 -18 -20 -15 -14 -19 -15 -19 -2
0 8 4 12 8 9 4 -2 10 0 14 6 6 10 15 14 15 7z m301 -14 c13 -16 12 -17 -3 -4
-10 7 -18 15 -18 17 0 8 8 3 21 -13z m34 8 c3 -5 2 -12 -3 -15 -5 -3 -9 1 -9
9 0 17 3 19 12 6z m-444 -18 c13 -16 12 -17 -3 -4 -10 7 -18 15 -18 17 0 8 8
3 21 -13z m360 0 c13 -17 13 -17 -6 -3 -11 8 -22 16 -24 17 -2 2 0 3 6 3 6 0
17 -8 24 -17z m1123 1 c3 -8 2 -12 -4 -9 -6 3 -10 10 -10 16 0 14 7 11 14 -7z
m-1143 -21 c13 -16 12 -17 -3 -4 -10 7 -18 15 -18 17 0 8 8 3 21 -13z m179 13
c0 -2 -8 -10 -17 -17 -16 -13 -17 -12 -4 4 13 16 21 21 21 13z m-445 -26 c10
-11 16 -20 13 -20 -3 0 -13 9 -23 20 -10 11 -16 20 -13 20 3 0 13 -9 23 -20z
m53 -5 c-3 -3 -9 2 -12 12 -6 14 -5 15 5 6 7 -7 10 -15 7 -18z m96 -4 c-2 -3
-12 3 -22 13 -16 17 -16 18 5 5 12 -7 20 -15 17 -18z m232 7 c12 -14 13 -18 3
-10 -9 6 -18 10 -21 7 -2 -3 -5 2 -5 10 0 19 0 19 23 -7z m1144 7 c-7 -8 -17
-15 -23 -15 -6 0 -2 7 9 15 25 19 30 19 14 0z m-1624 -23 c-17 -16 -18 -16 -5
5 7 12 15 20 18 17 3 -2 -3 -12 -13 -22z m345 11 c13 -17 13 -17 -6 -3 -11 8
-22 16 -24 17 -2 2 0 3 6 3 6 0 17 -8 24 -17z m219 13 c0 -2 -8 -10 -17 -17
-16 -13 -17 -12 -4 4 13 16 21 21 21 13z m-344 -28 c3 -4 -1 -5 -10 -4 -8 1
-18 5 -22 8 -3 4 1 5 10 4 8 -1 18 -5 22 -8z m1439 3 c-9 -8 -36 -10 -30 -2 2
4 11 8 20 8 8 0 13 -3 10 -6z m-1629 -16 c-1 -8 -5 -17 -8 -21 -5 -4 -4 16 1
34 3 9 9 -1 7 -13z m124 11 c0 -2 -8 -10 -17 -17 -16 -13 -17 -12 -4 4 13 16
21 21 21 13z m277 -11 c0 -8 -3 -13 -5 -10 -3 3 -15 -3 -26 -12 -15 -14 -18
-14 -8 -2 6 9 8 20 4 24 -4 5 -2 5 5 1 6 -3 14 -2 18 4 9 14 12 13 12 -5z m59
3 c5 4 6 3 2 -2 -4 -5 -2 -16 4 -25 10 -12 7 -12 -8 2 -11 9 -23 15 -26 12 -2
-3 -5 2 -5 10 0 10 4 12 12 5 7 -5 16 -6 21 -2z m1239 0 c5 4 5 1 1 -6 -6 -10
-11 -10 -22 -1 -8 6 -14 14 -14 16 0 3 6 0 13 -6 8 -6 18 -7 22 -3z m-1569
-26 c-17 -16 -18 -16 -5 5 7 12 15 20 18 17 3 -2 -3 -12 -13 -22z m1534 3 c14
-19 14 -19 -2 -6 -10 7 -18 18 -18 24 0 6 1 8 3 6 1 -2 9 -13 17 -24z m-1605
-3 c-3 -3 0 -11 6 -19 17 -20 5 -16 -14 5 -15 16 -15 19 -2 19 8 0 13 -3 10
-5z m40 -10 c-3 -3 -11 0 -18 7 -9 10 -8 11 6 5 10 -3 15 -9 12 -12z m200 10
c-3 -3 0 -11 6 -19 17 -20 5 -16 -14 5 -15 16 -15 19 -2 19 8 0 13 -3 10 -5z
m40 -10 c-3 -3 -11 0 -18 7 -9 10 -8 11 6 5 10 -3 15 -9 12 -12z m170 8 c-3
-5 -12 -10 -18 -10 -7 0 -6 4 3 10 19 12 23 12 15 0z m45 5 c0 -1 -10 -10 -22
-21 -14 -12 -18 -13 -10 -3 6 9 10 18 7 21 -3 2 2 5 10 5 8 0 15 -1 15 -2z
m24 -4 c3 -4 -4 -17 -17 -27 -22 -19 -22 -19 -4 2 9 11 14 24 10 27 -3 4 -4 7
0 7 3 0 8 -4 11 -9z m978 -16 c3 3 13 -5 24 -17 19 -23 19 -23 -1 -7 -11 9
-28 15 -38 14 -11 -2 -16 -1 -13 2 3 4 0 13 -6 22 -10 12 -7 12 8 -2 11 -9 23
-15 26 -12z m-1395 0 c0 -8 -3 -13 -5 -10 -3 3 -12 -1 -21 -7 -10 -8 -9 -4 3
10 23 26 23 26 23 7z m240 0 c0 -8 -4 -12 -8 -9 -4 2 -10 0 -14 -6 -3 -5 -11
-10 -17 -10 -7 0 26 35 38 40 0 0 1 -7 1 -15z m42 1 c9 -10 8 -15 -2 -19 -8
-3 -13 3 -13 14 0 23 0 23 15 5z m1207 -8 c12 -14 13 -18 3 -10 -9 6 -18 10
-21 7 -2 -3 -5 2 -5 10 0 19 0 19 23 -7z m-1615 -5 c13 -17 13 -17 -6 -3 -11
8 -22 16 -24 17 -2 2 0 3 6 3 6 0 17 -8 24 -17z m199 14 c0 -2 -10 -12 -22
-23 l-23 -19 19 23 c18 21 26 27 26 19z m41 -14 c13 -17 13 -17 -6 -3 -11 8
-22 16 -24 17 -2 2 0 3 6 3 6 0 17 -8 24 -17z m-260 -20 c13 -16 12 -17 -3 -4
-10 7 -18 15 -18 17 0 8 8 3 21 -13z m82 -2 c-12 -10 -20 -21 -18 -25 3 -3 2
-4 -2 -1 -13 10 -11 34 2 29 7 -3 16 -1 20 5 3 6 9 11 13 11 4 -1 -3 -9 -15
-19z m166 -15 c-3 -3 -11 5 -18 17 -13 21 -12 21 5 5 10 -10 16 -20 13 -22z
m211 30 c0 -2 -8 -10 -17 -17 -16 -13 -17 -12 -4 4 13 16 21 21 21 13z m1230
-2 c0 -8 -19 -13 -24 -6 -3 5 1 9 9 9 8 0 15 -2 15 -3z m-1544 -19 c-1 -8 -5
-17 -8 -21 -5 -4 -4 16 1 34 3 9 9 -1 7 -13z m158 -15 c-6 -6 -10 -3 -10 10 0
13 4 16 10 10 7 -7 7 -13 0 -20z m1240 0 c-6 -6 -10 -3 -10 10 0 13 4 16 10
10 7 -7 7 -13 0 -20z m84 5 c-3 -3 -9 2 -12 12 -6 14 -5 15 5 6 7 -7 10 -15 7
-18z m-1672 -13 c-17 -16 -18 -16 -5 5 7 12 15 20 18 17 3 -2 -3 -12 -13 -22z
m270 16 c4 -7 3 -10 -1 -5 -5 4 -18 -1 -29 -10 -21 -18 -21 -18 -2 5 22 26 23
26 32 10z m198 -4 c3 -8 2 -12 -4 -9 -6 3 -10 10 -10 16 0 14 7 11 14 -7z m61
-39 c2 -26 1 -44 -2 -41 -3 3 -7 26 -8 51 -2 26 -1 44 2 41 3 -3 7 -26 8 -51z
m56 38 c13 -16 12 -17 -3 -4 -10 7 -18 15 -18 17 0 8 8 3 21 -13z m1069 3 c0
-2 -8 -10 -17 -17 -16 -13 -17 -12 -4 4 13 16 21 21 21 13z m-1561 -40 c-3 -3
-11 5 -18 17 -13 21 -12 21 5 5 10 -10 16 -20 13 -22z m291 30 c0 -2 -8 -10
-17 -17 -16 -13 -17 -12 -4 4 13 16 21 21 21 13z m61 -13 c13 -16 12 -17 -3
-4 -10 7 -18 15 -18 17 0 8 8 3 21 -13z m120 0 c13 -16 12 -17 -3 -4 -10 7
-18 15 -18 17 0 8 8 3 21 -13z m-534 -6 c0 -8 -6 -14 -14 -14 -9 0 -10 4 -2
14 6 7 12 13 14 13 1 0 2 -6 2 -13z m240 -2 c0 -8 -3 -13 -5 -10 -3 3 -12 -1
-21 -7 -10 -8 -9 -4 3 10 23 26 23 26 23 7z m1343 12 c0 -2 -8 -11 -18 -20
-15 -14 -19 -15 -19 -2 0 8 4 12 8 9 4 -2 10 0 14 6 6 10 15 14 15 7z m73 -23
c14 -17 14 -21 2 -21 -8 0 -12 4 -9 8 2 4 0 10 -6 14 -5 3 -10 11 -10 17 0 6
1 9 3 7 1 -2 10 -13 20 -25z m28 9 c13 -16 12 -17 -3 -4 -17 13 -22 21 -14 21
2 0 10 -8 17 -17z m-1290 -10 c13 -16 12 -17 -3 -4 -15 11 -21 11 -35 0 -16
-13 -17 -12 -4 4 7 9 17 17 21 17 4 0 14 -8 21 -17z m1126 0 c0 -9 -4 -10 -14
-2 -7 6 -13 12 -13 14 0 1 6 2 13 2 8 0 14 -6 14 -14z m-1528 -18 c7 3 8 0 5
-9 -8 -20 -7 -20 -30 6 -14 17 -15 20 -2 9 9 -7 22 -10 27 -6z m201 11 c0 -2
-9 -6 -20 -9 -11 -3 -18 -1 -14 4 5 9 34 13 34 5z m110 0 c0 -2 -7 -7 -16 -10
-8 -3 -12 -2 -9 4 6 10 25 14 25 6z m165 -6 c3 -6 -1 -7 -9 -4 -18 7 -21 14
-7 14 6 0 13 -4 16 -10z m70 -8 c-3 -3 -11 0 -18 7 -9 10 -8 11 6 5 10 -3 15
-9 12 -12z m1055 14 c0 -2 -8 -10 -17 -17 -16 -13 -17 -12 -4 4 13 16 21 21
21 13z m35 -6 c3 -6 -1 -7 -9 -4 -18 7 -21 14 -7 14 6 0 13 -4 16 -10z m-1558
-18 c-10 -10 -15 -21 -12 -24 3 -3 -5 -13 -17 -24 l-23 -19 19 23 c11 12 15
22 11 22 -4 0 0 9 10 20 10 11 20 20 23 20 3 0 -2 -8 -11 -18z m169 -2 c0 -12
-4 -16 -9 -11 -5 5 -6 14 -3 20 10 15 12 14 12 -9z m1196 5 c19 0 14 -11 -6
-11 -12 0 -23 6 -23 13 0 6 5 9 11 5 6 -4 14 -7 18 -7z m44 0 c-1 -8 -5 -17
-8 -21 -5 -4 -4 16 1 34 3 9 9 -1 7 -13z m-1525 -12 c13 -16 12 -17 -3 -4 -10
7 -18 15 -18 17 0 8 8 3 21 -13z m135 -11 c-17 -16 -18 -16 -5 5 7 12 15 20
18 17 3 -2 -3 -12 -13 -22z m215 1 c13 -16 12 -17 -3 -4 -10 7 -18 15 -18 17
0 8 8 3 21 -13z m210 -6 c-10 -9 -11 -8 -5 6 3 10 9 15 12 12 3 -3 0 -11 -7
-18z m826 8 c0 -8 -10 -23 -21 -32 -21 -18 -21 -18 -2 5 11 12 16 22 12 22 -4
0 -4 5 -1 10 9 14 12 13 12 -5z m-992 -5 c-3 -5 -12 -10 -18 -10 -7 0 -6 4 3
10 19 12 23 12 15 0z m45 5 c0 -1 -10 -10 -22 -21 -14 -12 -18 -13 -10 -3 6 9
10 18 7 21 -3 2 2 5 10 5 8 0 15 -1 15 -2z m904 -3 c3 -5 -1 -9 -9 -9 -8 0
-12 4 -9 9 3 4 7 8 9 8 2 0 6 -4 9 -8z m203 -10 c-17 -18 -51 -27 -41 -10 3 5
9 6 14 3 4 -3 13 2 20 10 7 8 15 15 18 15 3 0 -2 -8 -11 -18z m78 -2 c10 -11
16 -20 13 -20 -3 0 -13 9 -23 20 -10 11 -16 20 -13 20 3 0 13 -9 23 -20z
m-1574 -7 c13 -16 12 -17 -3 -4 -10 7 -18 15 -18 17 0 8 8 3 21 -13z m152 2
c-3 -9 -8 -14 -10 -11 -3 3 -2 9 2 15 9 16 15 13 8 -4z m79 0 c2 3 5 -2 5 -10
0 -19 0 -19 -23 7 -12 14 -13 18 -3 10 9 -6 18 -10 21 -7z m54 -7 c12 -14 13
-18 3 -10 -9 6 -18 10 -21 7 -2 -3 -5 2 -5 10 0 19 0 19 23 -7z m144 7 c-7 -9
-15 -13 -18 -10 -3 3 -12 -1 -21 -8 -14 -11 -14 -10 -2 5 7 10 17 16 21 13 5
-3 11 -1 15 5 3 5 9 10 12 10 3 0 0 -7 -7 -15z m986 -30 c-1 -8 -5 -17 -8 -21
-4 -3 -5 2 -3 13 1 10 -5 27 -14 38 -16 20 -16 20 6 2 11 -10 20 -25 19 -32z
m254 30 c-7 -8 -17 -15 -23 -15 -6 0 -2 7 9 15 25 19 30 19 14 0z m-1697 -13
c15 -16 15 -19 2 -19 -8 0 -13 3 -10 5 3 3 0 11 -6 19 -17 20 -5 16 14 -5z
m488 5 c-6 -8 -9 -16 -6 -19 3 -2 -2 -5 -10 -5 -13 0 -13 3 2 19 19 21 31 25
14 5z m35 -11 c1 -7 -4 -13 -12 -13 -9 0 -11 4 -4 12 5 7 8 15 5 18 -3 4 -2 5
2 2 4 -3 8 -11 9 -19z m1125 -3 c13 -16 12 -17 -3 -4 -17 13 -22 21 -14 21 2
0 10 -8 17 -17z m-1524 -10 c-9 -10 -35 -18 -58 -19 -23 -1 -36 2 -29 6 6 4
25 6 41 5 16 -1 34 4 40 11 6 8 14 14 17 14 4 0 -1 -8 -11 -17z m114 0 c13
-16 12 -17 -3 -4 -10 7 -18 15 -18 17 0 8 8 3 21 -13z m120 0 c13 -16 12 -17
-3 -4 -10 7 -18 15 -18 17 0 8 8 3 21 -13z m33 -9 c3 -8 2 -12 -4 -9 -6 3 -10
10 -10 16 0 14 7 11 14 -7z m53 1 c0 -8 -3 -13 -5 -10 -3 3 -10 0 -17 -5 -8
-7 -12 -5 -12 5 0 8 4 12 8 9 4 -2 10 0 14 6 9 14 12 13 12 -5z m1063 11 c0
-2 -8 -10 -17 -17 -16 -13 -17 -12 -4 4 13 16 21 21 21 13z m121 -13 c13 -16
12 -17 -3 -4 -17 13 -22 21 -14 21 2 0 10 -8 17 -17z m-1410 -10 c13 -16 12
-17 -3 -4 -10 7 -18 15 -18 17 0 8 8 3 21 -13z m65 -44 c1 -22 -1 -37 -4 -34
-3 3 -6 20 -7 38 0 17 -4 39 -9 47 -7 12 -6 13 5 2 7 -6 14 -30 15 -53z m55
44 c13 -16 12 -17 -3 -4 -10 7 -18 15 -18 17 0 8 8 3 21 -13z m1069 -8 c14
-19 14 -19 -2 -6 -10 7 -18 18 -18 24 0 6 1 8 3 6 1 -2 9 -13 17 -24z m164 17
c2 -4 -4 -8 -14 -8 -10 0 -16 4 -14 8 3 4 9 8 14 8 5 0 11 -4 14 -8z m-44 -6
c0 -2 -8 -10 -17 -17 -16 -13 -17 -12 -4 4 13 16 21 21 21 13z m81 -13 c13
-16 12 -17 -3 -4 -17 13 -22 21 -14 21 2 0 10 -8 17 -17z m-1410 -10 c13 -16
12 -17 -3 -4 -10 7 -18 15 -18 17 0 8 8 3 21 -13z m128 -17 c-3 -3 -11 5 -18
17 -13 21 -12 21 5 5 10 -10 16 -20 13 -22z m953 8 c-9 -12 -19 -20 -21 -18
-2 2 1 10 7 17 7 8 10 16 7 19 -3 2 1 5 9 5 12 0 11 -5 -2 -23z m48 11 c-5 -7
-9 -14 -7 -16 1 -2 0 -3 -2 -2 -2 2 -11 -3 -20 -9 -12 -10 -12 -7 2 8 9 11 15
23 12 26 -3 2 2 5 10 5 10 0 12 -4 5 -12z m-1323 -44 c1 -11 -6 -26 -15 -33
-15 -11 -15 -11 -5 2 14 19 12 42 -7 66 -14 18 -14 18 6 2 11 -9 20 -26 21
-37z m93 34 c-7 -8 -17 -15 -23 -15 -6 0 -2 7 9 15 25 19 30 19 14 0z m1128
-1 c8 -2 17 -5 20 -8 3 -4 -4 -5 -16 -3 -12 2 -28 9 -35 17 -10 10 -9 11 3 4
8 -5 21 -9 28 -10z m319 3 c0 -8 -6 -14 -14 -14 -9 0 -10 4 -2 14 6 7 12 13
14 13 1 0 2 -6 2 -13z m49 -9 c12 -14 13 -18 3 -10 -9 6 -18 10 -21 7 -2 -3
-5 2 -5 10 0 19 0 19 23 -7z m-1415 -5 c13 -16 12 -17 -3 -4 -15 11 -21 11
-35 0 -16 -13 -17 -12 -4 4 7 9 17 17 21 17 4 0 14 -8 21 -17z m960 0 c13 -16
12 -17 -3 -4 -17 13 -22 21 -14 21 2 0 10 -8 17 -17z m310 4 c-6 -8 -9 -16 -6
-19 3 -2 -2 -5 -10 -5 -13 0 -13 3 2 19 19 21 31 25 14 5z m210 -10 c-10 -9
-11 -8 -5 6 3 10 9 15 12 12 3 -3 0 -11 -7 -18z m-1605 -9 c3 -4 -1 -5 -10 -4
-8 1 -18 5 -22 8 -3 4 1 5 10 4 8 -1 18 -5 22 -8z m199 2 c3 -6 -1 -7 -9 -4
-18 7 -21 14 -7 14 6 0 13 -4 16 -10z m200 1 c-9 -8 -36 -10 -30 -2 2 4 11 8
20 8 8 0 13 -3 10 -6z m954 -25 c-3 -3 -11 5 -18 17 -13 21 -12 21 5 5 10 -10
16 -20 13 -22z m81 30 c0 -2 -7 -7 -16 -10 -8 -3 -12 -2 -9 4 6 10 25 14 25 6z
m53 -14 c3 7 4 3 4 -9 -1 -15 -5 -19 -13 -13 -6 6 -15 6 -20 2 -5 -4 -6 -3 -2
2 4 5 2 16 -4 25 -9 11 -6 10 9 -2 16 -14 22 -15 26 -5z m-1197 -7 c-1 -8 -5
-17 -8 -21 -5 -4 -4 16 1 34 3 9 9 -1 7 -13z m782 -10 c-3 -3 -9 2 -12 12 -6
14 -5 15 5 6 7 -7 10 -15 7 -18z m456 -5 c-6 -6 -10 -3 -10 10 0 13 4 16 10
10 7 -7 7 -13 0 -20z m-1104 16 c0 -2 -8 -10 -17 -17 -16 -13 -17 -12 -4 4 13
16 21 21 21 13z m621 -13 c12 -16 12 -17 -2 -6 -9 7 -20 9 -24 5 -5 -4 -5 -1
-1 6 9 16 11 15 27 -5z m203 1 c3 -8 2 -12 -4 -9 -6 3 -10 10 -10 16 0 14 7
11 14 -7z m77 -1 c13 -16 12 -17 -3 -4 -17 13 -22 21 -14 21 2 0 10 -8 17 -17z
m-1131 3 c0 -2 -8 -10 -17 -17 -16 -13 -17 -12 -4 4 13 16 21 21 21 13z m797
-11 c0 -8 -10 -23 -21 -32 -21 -18 -21 -18 -2 5 11 12 16 22 12 22 -4 0 -4 5
-1 10 9 14 12 13 12 -5z m596 2 c3 -8 -1 -14 -8 -14 -7 0 -11 6 -8 14 3 7 6
13 8 13 2 0 5 -6 8 -13z m-1478 -5 c-3 -3 0 -11 6 -19 17 -20 5 -16 -14 5 -15
16 -15 19 -2 19 8 0 13 -3 10 -5z m40 -10 c-3 -3 -11 0 -18 7 -9 10 -8 11 6 5
10 -3 15 -9 12 -12z m200 10 c-3 -3 0 -11 6 -19 17 -20 5 -16 -14 5 -15 16
-15 19 -2 19 8 0 13 -3 10 -5z m770 -1 c-9 -8 -36 -10 -30 -2 2 4 11 8 20 8 8
0 13 -3 10 -6z m81 -3 c3 -4 -1 -5 -10 -4 -8 1 -18 5 -22 8 -3 4 1 5 10 4 8
-1 18 -5 22 -8z m113 -22 c-3 -3 -11 5 -18 17 -13 21 -12 21 5 5 10 -10 16
-20 13 -22z m-1342 9 c0 -8 -3 -13 -5 -10 -3 3 -12 -1 -21 -7 -10 -8 -9 -4 3
10 23 26 23 26 23 7z m240 0 c0 -8 -3 -13 -5 -10 -3 3 -12 -1 -21 -7 -10 -8
-9 -4 3 10 23 26 23 26 23 7z m1035 0 c2 3 5 -2 5 -10 0 -19 0 -19 -23 7 -12
14 -13 18 -3 10 9 -6 18 -10 21 -7z m152 -6 c-10 -12 -18 -24 -17 -28 1 -3 0
-8 -2 -9 -2 -2 -3 3 -1 11 2 16 25 47 34 47 3 0 -3 -9 -14 -21z m88 6 c2 3 5
-2 5 -10 0 -19 0 -19 -23 7 -12 14 -13 18 -3 10 9 -6 18 -10 21 -7z m68 12 c0
-2 -8 -11 -18 -20 -15 -14 -19 -15 -19 -2 0 8 4 12 8 9 4 -2 10 0 14 6 6 10
15 14 15 7z m-1469 -24 c13 -17 13 -17 -6 -3 -11 8 -22 16 -24 17 -2 2 0 3 6
3 6 0 17 -8 24 -17z m241 -1 c11 -15 11 -15 -2 -5 -19 14 -42 12 -66 -7 -18
-14 -18 -14 -2 6 22 25 53 28 70 6z m827 15 c-2 -1 -13 -9 -24 -17 -19 -14
-19 -14 -6 3 7 9 18 17 24 17 6 0 8 -1 6 -3z m-1088 -34 c13 -16 12 -17 -3 -4
-10 7 -18 15 -18 17 0 8 8 3 21 -13z m99 13 c0 -2 -8 -10 -17 -17 -16 -13 -17
-12 -4 4 13 16 21 21 21 13z m1061 -13 c13 -16 12 -17 -3 -4 -17 13 -22 21
-14 21 2 0 10 -8 17 -17z m209 13 c0 -2 -7 -7 -16 -10 -8 -3 -12 -2 -9 4 6 10
25 14 25 6z m53 -21 c4 3 5 2 2 -2 -3 -4 -13 -8 -21 -9 -9 -1 -13 0 -10 3 3 4
0 13 -6 22 -10 12 -7 12 8 -2 11 -9 24 -15 27 -12z m68 12 c-6 -8 -9 -17 -6
-20 3 -4 2 -5 -2 -2 -3 3 -11 0 -18 -5 -8 -7 -12 -5 -12 5 0 8 4 12 8 10 3 -3
12 2 19 10 7 8 15 15 17 15 3 0 0 -6 -6 -13z m-1585 -16 c0 -11 -4 -17 -9 -14
-4 2 -16 -1 -25 -9 -15 -11 -15 -11 -5 3 7 9 9 20 5 24 -4 5 -2 5 5 1 6 -3 14
-2 18 4 9 14 11 13 11 -9z m324 15 c0 -2 -8 -10 -17 -17 -16 -13 -17 -12 -4 4
13 16 21 21 21 13z m74 -26 c-6 -6 -10 -3 -10 10 0 13 4 16 10 10 7 -7 7 -13
0 -20z m544 5 c-3 -3 -9 2 -12 12 -6 14 -5 15 5 6 7 -7 10 -15 7 -18z m422 21
c0 -2 -8 -10 -17 -17 -16 -13 -17 -12 -4 4 13 16 21 21 21 13z m276 -16 c0
-12 -4 -16 -9 -11 -5 5 -6 14 -3 20 10 15 12 14 12 -9z m-1310 -18 c-17 -16
-18 -16 -5 5 7 12 15 20 18 17 3 -2 -3 -12 -13 -22z m889 20 c-7 -8 -95 -11
-95 -4 0 4 22 7 50 8 27 0 48 -1 45 -4z m-959 -38 c0 -13 -2 -22 -5 -19 -3 3
-6 17 -7 31 0 13 2 22 5 19 3 -3 6 -17 7 -31z m1140 24 c4 -7 3 -8 -5 -4 -6 4
-20 2 -29 -6 -15 -12 -16 -11 -3 5 16 20 27 22 37 5z m65 -5 c13 -16 12 -17
-3 -4 -17 13 -22 21 -14 21 2 0 10 -8 17 -17z m-1366 -13 c-10 -11 -20 -18
-23 -15 -3 3 -15 -3 -26 -12 -21 -18 -21 -18 -2 4 10 13 22 20 26 18 4 -3 13
2 20 10 7 8 15 15 18 15 3 0 -3 -9 -13 -20z m76 3 c13 -16 12 -17 -3 -4 -10 7
-18 15 -18 17 0 8 8 3 21 -13z m669 7 c0 -5 -5 -10 -11 -10 -5 0 -7 5 -4 10 3
6 8 10 11 10 2 0 4 -4 4 -10z m175 2 c-3 -3 0 -11 6 -19 17 -20 5 -16 -14 5
-15 16 -15 19 -2 19 8 0 13 -3 10 -5z m255 5 c0 -2 -10 -12 -22 -23 l-23 -19
19 23 c18 21 26 27 26 19z m-920 -22 c-7 -8 -17 -15 -23 -15 -6 0 -2 7 9 15
25 19 30 19 14 0z m594 -6 c-10 -12 -18 -24 -17 -28 1 -3 0 -8 -2 -9 -2 -2 -3
3 -1 11 2 16 25 47 34 47 3 0 -3 -9 -14 -21z m153 -28 c1 -11 -6 -26 -15 -33
-15 -11 -15 -11 -5 2 14 19 12 42 -7 66 -14 18 -14 18 6 2 11 -9 20 -26 21
-37z m93 34 c-7 -8 -17 -15 -23 -15 -6 0 -2 7 9 15 25 19 30 19 14 0z m150 12
c0 -2 -8 -11 -18 -20 -15 -14 -19 -15 -19 -2 0 8 4 12 8 9 4 -2 10 0 14 6 6
10 15 14 15 7z m114 -26 c-2 -3 -12 3 -22 13 -16 17 -16 18 5 5 12 -7 20 -15
17 -18z m126 26 c0 -2 -8 -11 -18 -20 -15 -14 -19 -15 -19 -2 0 8 4 12 8 9 4
-2 10 0 14 6 6 10 15 14 15 7z m35 -7 c3 -6 -1 -7 -9 -4 -18 7 -21 14 -7 14 6
0 13 -4 16 -10z m66 -7 c13 -16 12 -17 -3 -4 -17 13 -22 21 -14 21 2 0 10 -8
17 -17z m-1684 -10 c0 -9 -4 -10 -14 -2 -7 6 -13 12 -13 14 0 1 6 2 13 2 8 0
14 -6 14 -14z m154 0 c13 -17 13 -17 -6 -3 -11 8 -22 16 -24 17 -2 2 0 3 6 3
6 0 17 -8 24 -17z m1262 -1 c15 -16 15 -19 2 -19 -8 0 -13 3 -10 5 3 3 0 11
-6 19 -17 20 -5 16 14 -5z m240 0 c15 -16 15 -19 2 -19 -8 0 -13 3 -10 5 3 3
0 11 -6 19 -17 20 -5 16 14 -5z m-1273 4 c0 -2 -8 -10 -17 -17 -16 -13 -17
-12 -4 4 13 16 21 21 21 13z m472 -13 c-1 -4 7 -17 16 -28 17 -20 17 -20 -4
-2 -11 9 -21 24 -21 32 0 8 2 13 5 11 2 -2 4 -8 4 -13z m209 0 c13 -16 12 -17
-3 -4 -17 13 -22 21 -14 21 2 0 10 -8 17 -17z m159 13 c0 -2 -8 -10 -17 -17
-16 -13 -17 -12 -4 4 13 16 21 21 21 13z m-1228 -30 c3 3 8 1 12 -4 11 -18
-25 -8 -41 12 -18 21 -18 21 3 3 11 -9 23 -14 26 -11z m832 16 c3 -5 -1 -9 -9
-9 -8 0 -15 4 -15 9 0 4 4 8 9 8 6 0 12 -4 15 -8z m76 -6 c-7 -7 -13 -7 -20 0
-6 6 -3 10 10 10 13 0 16 -4 10 -10z m85 5 c-9 -8 -36 -10 -30 -2 2 4 11 8 20
8 8 0 13 -3 10 -6z m353 -11 c-7 -10 -14 -17 -17 -15 -4 4 18 35 25 35 2 0 -1
-9 -8 -20z m47 10 c3 -6 -1 -7 -9 -4 -18 7 -21 14 -7 14 6 0 13 -4 16 -10z
m196 -3 c-6 -8 -9 -17 -6 -20 3 -4 2 -5 -2 -2 -3 3 -11 0 -18 -5 -8 -7 -12 -5
-12 5 0 8 4 12 8 10 3 -3 12 2 19 10 7 8 15 15 17 15 3 0 0 -6 -6 -13z m44 3
c3 -6 -1 -7 -9 -4 -18 7 -21 14 -7 14 6 0 13 -4 16 -10z m-1552 -15 c-3 -9 -8
-14 -10 -11 -3 3 -2 9 2 15 9 16 15 13 8 -4z m164 0 c0 -8 -3 -13 -5 -10 -3 3
-15 -3 -26 -12 -15 -14 -18 -14 -8 -2 6 9 8 20 4 24 -4 5 -2 5 5 1 6 -3 14 -2
18 4 9 14 12 13 12 -5z m79 -11 c1 -9 0 -13 -4 -10 -3 4 -7 14 -8 22 -1 9 0
13 4 10 3 -4 7 -14 8 -22z m725 9 c13 -16 12 -17 -3 -4 -17 13 -22 21 -14 21
2 0 10 -8 17 -17z m435 2 c-1 -8 -5 -17 -8 -21 -5 -4 -4 16 1 34 3 9 9 -1 7
-13z m-1525 -12 c13 -16 12 -17 -3 -4 -10 7 -18 15 -18 17 0 8 8 3 21 -13z
m146 2 c0 -8 -4 -12 -9 -9 -5 3 -6 10 -3 15 9 13 12 11 12 -6z m614 -8 c-10
-9 -11 -8 -5 6 3 10 9 15 12 12 3 -3 0 -11 -7 -18z m68 20 c-2 -1 -13 -9 -24
-17 -19 -14 -19 -14 -6 3 7 9 18 17 24 17 6 0 8 -1 6 -3z m241 -22 c14 -19 14
-19 -2 -6 -10 7 -18 18 -18 24 0 6 1 8 3 6 1 -2 9 -13 17 -24z m350 21 c0 -2
-8 -10 -17 -17 -16 -13 -17 -12 -4 4 13 16 21 21 21 13z m-1235 -24 c-3 -3 0
-11 6 -19 17 -20 5 -16 -14 5 -15 16 -15 19 -2 19 8 0 13 -3 10 -5z m40 -10
c-3 -3 -11 0 -18 7 -9 10 -8 11 6 5 10 -3 15 -9 12 -12z m124 -16 c-3 -3 -11
5 -18 17 -13 21 -12 21 5 5 10 -10 16 -20 13 -22z m478 17 c-16 -16 -91 -28
-82 -12 3 3 18 5 35 4 16 -1 35 4 41 11 6 8 14 14 17 14 4 0 -1 -8 -11 -17z
m39 -19 c-5 -49 -13 -53 -12 -4 0 22 4 40 8 40 4 0 5 -16 4 -36z m414 32 c0
-2 -8 -10 -17 -17 -16 -13 -17 -12 -4 4 13 16 21 21 21 13z m76 -8 c3 -4 -1
-5 -10 -4 -8 1 -18 5 -22 8 -3 4 1 5 10 4 8 -1 18 -5 22 -8z m192 -8 c-7 -10
-14 -17 -17 -15 -4 4 18 35 25 35 2 0 -1 -9 -8 -20z m-1482 -2 c5 4 6 3 2 -2
-4 -5 -4 -14 2 -20 6 -8 3 -12 -10 -12 -10 0 -16 4 -13 9 2 4 -1 16 -9 25 -11
15 -11 15 3 5 9 -7 20 -9 25 -5z m76 -3 c3 3 11 -3 19 -12 12 -16 12 -17 -2
-6 -9 7 -18 11 -21 8 -3 -3 -11 3 -19 12 -12 16 -12 17 2 6 9 -7 18 -11 21 -8z
m145 0 c0 -8 -3 -13 -5 -10 -3 3 -12 -1 -21 -7 -10 -8 -9 -4 3 10 23 26 23 26
23 7z m764 -2 c8 -9 9 -14 2 -10 -6 4 -13 1 -16 -5 -3 -7 -4 -3 -4 10 1 26 1
26 18 5z m116 2 c0 -8 -3 -13 -5 -10 -3 3 -12 -1 -21 -7 -10 -8 -9 -4 3 10 23
26 23 26 23 7z m300 -30 c0 -8 -4 -12 -9 -9 -5 4 -7 9 -4 12 3 3 -2 15 -11 26
-18 21 -18 21 3 3 11 -9 21 -24 21 -32z m237 16 c-2 -3 -12 3 -22 13 -16 17
-16 18 5 5 12 -7 20 -15 17 -18z m-1601 1 c15 -16 15 -19 2 -19 -8 0 -13 3
-10 5 3 3 0 11 -6 19 -17 20 -5 16 14 -5z m578 1 c13 -16 12 -17 -3 -4 -10 7
-18 15 -18 17 0 8 8 3 21 -13z m215 -11 c-17 -16 -18 -16 -5 5 7 12 15 20 18
17 3 -2 -3 -12 -13 -22z m91 4 c18 -21 18 -21 -3 -3 -11 9 -23 14 -26 11 -3
-3 -8 -1 -12 4 -11 18 25 8 41 -12z m334 7 c13 -17 13 -17 -6 -3 -11 8 -22 16
-24 17 -2 2 0 3 6 3 6 0 17 -8 24 -17z m83 1 c3 -8 2 -12 -4 -9 -6 3 -10 10
-10 16 0 14 7 11 14 -7z m-1377 -7 c0 -8 -6 -14 -14 -14 -9 0 -10 4 -2 14 6 7
12 13 14 13 1 0 2 -6 2 -13z m208 -5 c-3 -3 -11 0 -18 7 -9 10 -8 11 6 5 10
-3 15 -9 12 -12z m1436 1 c13 -16 12 -17 -3 -4 -17 13 -22 21 -14 21 2 0 10
-8 17 -17z m-600 -6 c-6 -8 -9 -16 -6 -19 3 -3 -3 -11 -12 -19 -16 -13 -17
-12 -4 4 7 9 10 17 6 17 -4 0 -2 7 5 15 7 8 15 15 17 15 3 0 0 -6 -6 -13z m49
8 c0 -1 -10 -10 -22 -21 -14 -12 -18 -13 -10 -3 6 9 10 18 7 21 -3 2 2 5 10 5
8 0 15 -1 15 -2z m467 -17 c2 -18 0 -20 -7 -8 -12 18 -13 30 -2 30 4 0 9 -10
9 -22z m-1425 -3 c2 3 5 -2 5 -10 0 -10 -4 -12 -12 -5 -7 5 -14 8 -17 5 -2 -3
-5 2 -5 10 0 10 4 12 12 5 7 -5 14 -8 17 -5z m506 -10 c-3 -3 -9 2 -12 12 -6
14 -5 15 5 6 7 -7 10 -15 7 -18z m135 10 c-3 -9 -8 -14 -10 -11 -3 3 -2 9 2
15 9 16 15 13 8 -4z m127 11 c0 -2 -8 -10 -17 -17 -16 -13 -17 -12 -4 4 13 16
21 21 21 13z m41 -13 c13 -16 12 -17 -3 -4 -17 13 -22 21 -14 21 2 0 10 -8 17
-17z m189 2 c-7 -9 -15 -13 -18 -10 -3 3 -12 -1 -21 -8 -14 -11 -14 -10 -2 5
7 10 17 16 21 13 5 -3 11 -1 15 5 3 5 9 10 12 10 3 0 0 -7 -7 -15z m48 -10
c-3 -3 -9 2 -12 12 -6 14 -5 15 5 6 7 -7 10 -15 7 -18z m323 -17 c-11 -11 -13
-10 -7 0 4 7 2 21 -5 30 -12 15 -11 15 6 0 16 -15 17 -20 6 -30z m113 12 c-6
-6 -10 -3 -10 10 0 13 4 16 10 10 7 -7 7 -13 0 -20z m-1384 16 c0 -2 -8 -10
-17 -17 -16 -13 -17 -12 -4 4 13 16 21 21 21 13z m381 -13 c13 -16 12 -17 -3
-4 -10 7 -18 15 -18 17 0 8 8 3 21 -13z m805 5 c4 -7 4 -10 -1 -6 -4 4 -15 2
-24 -5 -14 -11 -14 -10 -2 6 16 20 18 21 27 5z m-1140 -23 c0 -14 -4 -25 -8
-25 -6 0 -5 25 1 48 3 10 7 -2 7 -23z m525 8 c13 -16 12 -17 -3 -4 -10 7 -18
15 -18 17 0 8 8 3 21 -13z m359 13 c0 -2 -8 -10 -17 -17 -16 -13 -17 -12 -4 4
13 16 21 21 21 13z m-920 -21 c-10 -12 -10 -18 1 -32 12 -17 12 -17 -6 -1 -15
14 -16 20 -5 32 7 9 15 16 17 16 3 0 0 -7 -7 -15z m355 -13 c-3 -3 1 -12 8
-21 11 -14 10 -14 -6 -2 -9 8 -15 16 -12 19 3 3 -1 12 -8 21 -11 14 -10 14 6
2 9 -8 15 -16 12 -19z m123 8 c-7 -10 -14 -17 -17 -15 -4 4 18 35 25 35 2 0
-1 -9 -8 -20z m206 12 c2 -4 -4 -8 -14 -8 -10 0 -16 4 -14 8 3 4 9 8 14 8 5 0
11 -4 14 -8z m351 0 c-3 -3 0 -11 6 -19 17 -20 5 -16 -14 5 -15 16 -15 19 -2
19 8 0 13 -3 10 -5z m45 -6 c-7 -7 -13 -7 -20 0 -6 6 -3 10 10 10 13 0 16 -4
10 -10z m50 9 c0 -1 -10 -10 -22 -21 -14 -12 -18 -13 -10 -3 6 9 10 18 7 21
-3 2 2 5 10 5 8 0 15 -1 15 -2z m-584 -27 c12 -14 13 -18 3 -10 -9 6 -18 10
-21 7 -2 -3 -5 2 -5 10 0 19 0 19 23 -7z m271 9 c0 -8 -6 -14 -14 -14 -9 0
-10 4 -2 14 6 7 12 13 14 13 1 0 2 -6 2 -13z m63 10 c0 -2 -8 -11 -18 -20 -15
-14 -19 -15 -19 -2 0 8 4 12 8 9 4 -2 10 0 14 6 6 10 15 14 15 7z m50 -12 c-6
-8 -9 -19 -5 -24 4 -7 0 -8 -10 -5 -14 6 -14 8 1 25 20 22 32 26 14 4z m62 0
c3 3 11 -3 19 -12 12 -16 12 -17 -2 -6 -9 7 -18 11 -21 8 -3 -3 -11 3 -19 12
-12 16 -12 17 2 6 9 -7 18 -11 21 -8z m178 0 c-7 -9 -15 -13 -18 -10 -3 3 -12
-1 -21 -8 -14 -11 -14 -10 -2 5 7 10 17 16 21 13 5 -3 11 -1 15 5 3 5 9 10 12
10 3 0 0 -7 -7 -15z m-1279 -18 c-10 -9 -11 -8 -5 6 3 10 9 15 12 12 3 -3 0
-11 -7 -18z m205 11 c4 -7 3 -10 -1 -5 -5 4 -18 -1 -29 -10 -21 -18 -21 -18
-2 5 22 26 23 26 32 10z m195 -5 c12 -16 12 -17 -2 -6 -9 7 -20 9 -24 5 -5 -4
-5 -1 -1 6 9 16 11 15 27 -5z m430 4 c-6 -8 -9 -16 -6 -19 3 -2 -2 -5 -10 -5
-13 0 -13 3 2 19 19 21 31 25 14 5z m480 0 c-6 -8 -9 -16 -6 -19 3 -2 -2 -5
-10 -5 -13 0 -13 3 2 19 19 21 31 25 14 5z m96 -4 c0 -9 -4 -10 -14 -2 -7 6
-13 12 -13 14 0 1 6 2 13 2 8 0 14 -6 14 -14z m-338 -6 c8 -10 7 -14 -2 -14
-8 0 -14 6 -14 14 0 7 1 13 2 13 2 0 8 -6 14 -13z m-745 -6 c3 -5 -2 -15 -12
-22 -15 -12 -16 -12 -5 2 7 9 10 19 6 22 -3 4 -4 7 0 7 3 0 8 -4 11 -9z m379
-8 c-3 -7 -6 -13 -8 -13 -2 0 -5 6 -8 13 -3 8 1 14 8 14 7 0 11 -6 8 -14z
m167 13 c0 -2 -7 -7 -16 -10 -8 -3 -12 -2 -9 4 6 10 25 14 25 6z m53 -14 c3 7
4 3 4 -9 -1 -15 -5 -19 -13 -13 -6 6 -15 6 -20 2 -5 -4 -6 -3 -2 2 4 5 2 16
-4 25 -9 11 -6 10 9 -2 16 -14 22 -15 26 -5z m77 14 c0 -2 -8 -10 -17 -17 -16
-13 -17 -12 -4 4 13 16 21 21 21 13z m350 0 c0 -2 -7 -7 -16 -10 -8 -3 -12 -2
-9 4 6 10 25 14 25 6z m52 -21 c2 3 5 -2 5 -10 0 -10 -4 -12 -12 -5 -7 5 -16
6 -21 2 -5 -4 -6 -3 -2 2 4 5 2 16 -4 25 -10 12 -7 12 8 -2 11 -9 23 -15 26
-12z m-1316 -11 c1 -9 0 -13 -4 -10 -3 4 -7 14 -8 22 -1 9 0 13 4 10 3 -4 7
-14 8 -22z m282 1 c-3 -3 -9 2 -12 12 -6 14 -5 15 5 6 7 -7 10 -15 7 -18z m83
8 c13 -16 12 -17 -3 -4 -10 7 -18 15 -18 17 0 8 8 3 21 -13z m115 -9 c1 -9 0
-13 -4 -10 -3 4 -7 14 -8 22 -1 9 0 13 4 10 3 -4 7 -14 8 -22z m78 -4 c-6 -6
-10 -3 -10 10 0 13 4 16 10 10 7 -7 7 -13 0 -20z m519 10 c3 -11 1 -18 -4 -14
-5 3 -9 12 -9 20 0 20 7 17 13 -6z m-736 -14 c18 -21 18 -21 -3 -3 -11 9 -23
14 -26 11 -3 -3 -8 -1 -12 4 -11 18 25 8 41 -12z m363 14 c0 -5 -4 -10 -10
-10 -5 0 -10 5 -10 10 0 6 5 10 10 10 6 0 10 -4 10 -10z m-440 -4 c0 -2 -8
-10 -17 -17 -16 -13 -17 -12 -4 4 13 16 21 21 21 13z m-123 -13 c-4 -3 1 -16
10 -27 18 -21 18 -21 -4 -2 -20 16 -23 36 -6 36 4 0 3 -3 0 -7z m38 -2 c3 -5
2 -12 -3 -15 -5 -3 -9 1 -9 9 0 17 3 19 12 6z m40 -9 c-3 -3 -11 0 -18 7 -9
10 -8 11 6 5 10 -3 15 -9 12 -12z m170 8 c-3 -5 -12 -10 -18 -10 -7 0 -6 4 3
10 19 12 23 12 15 0z m45 5 c0 -1 -10 -10 -22 -21 -14 -12 -18 -13 -10 -3 6 9
10 18 7 21 -3 2 2 5 10 5 8 0 15 -1 15 -2z m482 -20 c3 3 13 -5 24 -17 19 -23
19 -23 -2 -5 -11 9 -23 15 -26 12 -3 -3 -13 5 -24 17 -19 23 -19 23 2 5 11 -9
23 -15 26 -12z m223 7 c-3 -3 -11 0 -18 7 -9 10 -8 11 6 5 10 -3 15 -9 12 -12z
m-858 -7 c0 -8 -4 -12 -8 -9 -4 2 -10 0 -14 -6 -3 -5 -11 -10 -17 -10 -7 0 26
35 38 40 0 0 1 -7 1 -15z m42 2 c8 -10 7 -14 -2 -14 -8 0 -14 6 -14 14 0 7 1
13 2 13 2 0 8 -6 14 -13z m261 10 c0 -2 -8 -11 -18 -20 -15 -14 -19 -15 -19
-2 0 8 4 12 8 9 4 -2 10 0 14 6 6 10 15 14 15 7z m58 -22 c-3 -3 -9 2 -12 12
-6 14 -5 15 5 6 7 -7 10 -15 7 -18z m109 7 c-10 -10 -15 -21 -12 -24 3 -3 -5
-13 -17 -24 l-23 -19 19 23 c11 12 15 22 11 22 -4 0 0 9 10 20 10 11 20 20 23
20 3 0 -2 -8 -11 -18z m85 3 c2 3 5 -2 5 -10 0 -19 0 -19 -23 7 -12 14 -13 18
-3 10 9 -6 18 -10 21 -7z m158 0 c-7 -8 -17 -15 -23 -15 -6 0 -2 7 9 15 25 19
30 19 14 0z m238 6 c16 12 16 12 0 -6 -18 -19 -18 -19 -35 0 -17 18 -17 18 0
6 14 -11 20 -11 35 0z m-730 -25 c16 -20 16 -20 -2 -6 -24 19 -47 21 -66 7
-13 -10 -13 -10 -2 5 17 22 48 19 70 -6z m-398 10 c0 -2 -8 -10 -17 -17 -16
-13 -17 -12 -4 4 13 16 21 21 21 13z m920 0 c0 -2 -8 -10 -17 -17 -16 -13 -17
-12 -4 4 13 16 21 21 21 13z m161 -13 c13 -16 12 -17 -3 -4 -17 13 -22 21 -14
21 2 0 10 -8 17 -17z m-1050 -10 c13 -16 12 -17 -3 -4 -10 7 -18 15 -18 17 0
8 8 3 21 -13z m210 4 c-6 -8 -9 -16 -6 -19 3 -3 -3 -11 -12 -19 -16 -13 -17
-12 -4 4 7 9 10 17 6 17 -4 0 -2 7 5 15 7 8 15 15 17 15 3 0 0 -6 -6 -13z
m240 0 c-6 -8 -9 -16 -6 -19 3 -3 -3 -11 -12 -19 -16 -13 -17 -12 -4 4 7 9 10
17 6 17 -4 0 -2 7 5 15 7 8 15 15 17 15 3 0 0 -6 -6 -13z m119 -1 c-7 -7 -13
-7 -20 0 -6 6 -3 10 10 10 13 0 16 -4 10 -10z m80 10 c0 -2 -7 -7 -16 -10 -8
-3 -12 -2 -9 4 6 10 25 14 25 6z m35 -24 c-3 -3 1 -12 8 -21 11 -14 10 -14 -6
-2 -9 8 -15 16 -12 19 3 3 -1 12 -8 21 -11 14 -10 14 6 2 9 -8 15 -16 12 -19z
m-619 -8 c1 -9 0 -13 -4 -10 -3 4 -7 14 -8 22 -1 9 0 13 4 10 3 -4 7 -14 8
-22z m80 11 c-1 -8 -5 -17 -8 -21 -5 -4 -4 16 1 34 3 9 9 -1 7 -13z m25 -8
c-10 -9 -11 -8 -5 6 3 10 9 15 12 12 3 -3 0 -11 -7 -18z m180 6 c13 -16 12
-17 -3 -4 -10 7 -18 15 -18 17 0 8 8 3 21 -13z m685 -5 c12 -14 13 -18 3 -10
-9 6 -18 10 -21 7 -2 -3 -5 2 -5 10 0 19 0 19 23 -7z m-732 -4 c3 -8 2 -12 -4
-9 -6 3 -10 10 -10 16 0 14 7 11 14 -7z m237 -1 c13 -16 12 -17 -3 -4 -10 7
-18 15 -18 17 0 8 8 3 21 -13z m202 -3 c10 -12 9 -12 -4 -2 -9 6 -18 9 -21 6
-3 -3 -9 -1 -12 4 -9 15 22 8 37 -8z m-763 -4 c0 -2 -8 -10 -17 -17 -16 -13
-17 -12 -4 4 13 16 21 21 21 13z m97 -21 c12 1 20 -2 17 -6 -8 -14 -45 -5 -62
16 -17 19 -16 20 3 4 11 -9 30 -15 42 -14z m212 -9 c-3 -3 -11 5 -18 17 -13
21 -12 21 5 5 10 -10 16 -20 13 -22z m240 0 c-3 -3 -11 5 -18 17 -13 21 -12
21 5 5 10 -10 16 -20 13 -22z m400 0 c-3 -3 -11 5 -18 17 -13 21 -12 21 5 5
10 -10 16 -20 13 -22z m-703 5 c0 -16 -3 -17 -14 -9 -12 10 -7 19 13 28 1 0 1
-9 1 -19z m241 4 c0 -8 -4 -12 -8 -9 -4 2 -10 0 -14 -6 -3 -5 -11 -10 -17 -10
-7 0 26 35 38 40 0 0 1 -7 1 -15z m209 -7 c12 -14 13 -18 3 -10 -9 6 -18 10
-21 7 -2 -3 -5 2 -5 10 0 19 0 19 23 -7z m94 19 c0 -2 -10 -12 -22 -23 l-23
-19 19 23 c18 21 26 27 26 19z m-639 -20 c-6 -8 -9 -16 -6 -19 3 -2 -2 -5 -10
-5 -13 0 -13 3 2 19 19 21 31 25 14 5z m479 -12 c14 -19 14 -19 -2 -6 -10 7
-18 18 -18 24 0 6 1 8 3 6 1 -2 9 -13 17 -24z m240 0 c14 -19 14 -19 -2 -6
-10 7 -18 18 -18 24 0 6 1 8 3 6 1 -2 9 -13 17 -24z m35 -9 c-1 -49 -10 -53
-11 -5 -1 21 2 39 6 39 3 0 6 -15 5 -34z m-715 10 c0 -2 -7 -7 -16 -10 -8 -3
-12 -2 -9 4 6 10 25 14 25 6z m52 -21 c2 3 5 -2 5 -10 0 -10 -4 -12 -12 -5 -7
5 -16 6 -21 2 -5 -4 -6 -3 -2 2 4 5 2 16 -4 25 -10 12 -7 12 8 -2 11 -9 23
-15 26 -12z m188 21 c0 -2 -7 -7 -16 -10 -8 -3 -12 -2 -9 4 6 10 25 14 25 6z
m-104 -21 c-1 -8 -5 -17 -8 -21 -5 -4 -4 16 1 34 3 9 9 -1 7 -13z m157 0 c-3
-9 -8 -14 -10 -11 -3 3 -2 9 2 15 9 16 15 13 8 -4z m87 11 c0 -2 -8 -10 -17
-17 -16 -13 -17 -12 -4 4 13 16 21 21 21 13z m41 -13 c13 -16 12 -17 -3 -4
-10 7 -18 15 -18 17 0 8 8 3 21 -13z m77 -8 c-3 -3 -9 2 -12 12 -6 14 -5 15 5
6 7 -7 10 -15 7 -18z m158 -1 c1 -9 0 -13 -4 -10 -3 4 -7 14 -8 22 -1 9 0 13
4 10 3 -4 7 -14 8 -22z m-659 9 c-4 -3 -1 -13 6 -22 11 -14 10 -14 -5 -2 -16
12 -16 31 -1 31 4 0 3 -3 0 -7z m254 -10 c13 -16 12 -17 -3 -4 -10 7 -18 15
-18 17 0 8 8 3 21 -13z m373 8 c-3 -3 -23 -6 -46 -7 -22 -1 -36 1 -30 5 13 8
84 9 76 2z m-429 -19 c-3 -3 0 -11 6 -19 17 -20 5 -16 -14 5 -15 16 -15 19 -2
19 8 0 13 -3 10 -5z m40 -20 c-3 -3 1 -12 8 -21 11 -14 10 -14 -6 -2 -9 8 -15
16 -12 19 3 3 -1 12 -8 21 -11 14 -10 14 6 2 9 -8 15 -16 12 -19z m169 20 c2
-4 -4 -8 -14 -8 -10 0 -16 4 -14 8 3 4 9 8 14 8 5 0 11 -4 14 -8z m-459 -22
c10 -11 16 -20 13 -20 -3 0 -13 9 -23 20 -10 11 -16 20 -13 20 3 0 13 -9 23
-20z m107 5 c2 3 5 -2 5 -10 0 -19 0 -19 -23 7 -12 14 -13 18 -3 10 9 -6 18
-10 21 -7z m249 -2 c13 -16 12 -17 -3 -4 -10 7 -18 15 -18 17 0 8 8 3 21 -13z
m59 14 c0 -2 -10 -12 -22 -23 l-23 -19 19 23 c18 21 26 27 26 19z m127 -15
c-10 -10 -15 -21 -12 -24 3 -2 -2 -5 -10 -5 -10 0 -12 4 -5 12 5 7 6 16 2 20
-4 5 -2 5 5 1 6 -3 14 -2 18 4 3 5 9 10 12 10 3 0 -1 -8 -10 -18z m35 -5 c-7
-8 -10 -16 -7 -19 3 -2 -1 -5 -9 -5 -12 0 -11 5 2 23 9 12 19 20 21 18 2 -2
-1 -10 -7 -17z m87 7 c-7 -9 -14 -23 -15 -31 -2 -8 -5 -18 -8 -21 -4 -3 -5 4
-3 15 3 20 24 53 34 53 3 0 -1 -7 -8 -16z m-437 -12 c11 -15 11 -15 -2 -5 -19
14 -42 12 -66 -7 -18 -14 -18 -14 -2 6 22 25 53 28 70 6z m101 0 c15 -16 15
-19 2 -19 -8 0 -13 3 -10 5 3 3 0 11 -6 19 -17 20 -5 16 14 -5z m353 -10 c-17
-16 -18 -16 -5 5 7 12 15 20 18 17 3 -2 -3 -12 -13 -22z m-486 -6 c0 -2 -8
-10 -17 -17 -16 -13 -17 -12 -4 4 13 16 21 21 21 13z m99 -23 c2 -1 -5 -1 -16
0 -11 0 -20 7 -20 14 0 10 4 10 16 1 9 -7 18 -13 20 -15z m-79 3 c0 -2 -8 -10
-17 -17 -16 -13 -17 -12 -4 4 13 16 21 21 21 13z m155 -14 c-3 -3 3 -15 12
-26 14 -15 14 -18 2 -8 -9 6 -20 8 -25 4 -5 -4 -6 -3 -2 2 4 5 3 14 -2 21 -7
8 -5 12 5 12 8 0 13 -3 10 -5z m40 0 c-3 -3 0 -11 6 -19 17 -20 5 -16 -14 5
-15 16 -15 19 -2 19 8 0 13 -3 10 -5z m40 0 c-3 -3 3 -15 12 -26 14 -15 14
-18 2 -8 -9 6 -20 8 -25 4 -5 -4 -6 -3 -2 2 4 5 3 14 -2 21 -7 8 -5 12 5 12 8
0 13 -3 10 -5z m48 -9 c-4 -10 -9 -11 -19 -2 -18 15 -18 15 5 15 11 0 17 -5
14 -13z m37 2 c-5 -7 -9 -14 -7 -16 1 -2 0 -3 -2 -2 -2 2 -11 -3 -20 -9 -12
-10 -12 -7 2 8 9 11 15 23 12 26 -3 2 2 5 10 5 10 0 12 -4 5 -12z m50 10 c0
-1 -10 -10 -22 -21 -14 -12 -18 -13 -10 -3 6 9 10 18 7 21 -3 2 2 5 10 5 8 0
15 -1 15 -2z m35 -5 c3 -6 -1 -7 -9 -4 -18 7 -21 14 -7 14 6 0 13 -4 16 -10z
m-445 -4 c0 -2 -6 -9 -14 -15 -11 -9 -16 -9 -22 0 -4 7 -3 9 4 5 6 -3 13 -2
17 4 6 10 15 14 15 6z m60 0 c0 -2 -8 -10 -17 -17 -16 -13 -17 -12 -4 4 13 16
21 21 21 13z m41 -13 c13 -16 12 -17 -3 -4 -10 7 -18 15 -18 17 0 8 8 3 21
-13z m-24 -16 c0 -8 -6 -14 -14 -14 -9 0 -10 4 -2 14 6 7 12 13 14 13 1 0 2
-6 2 -13z m48 -7 c-3 -5 -14 -10 -23 -9 -14 0 -13 2 3 9 27 11 27 11 20 0z
m116 -23 c-10 -9 -11 -8 -5 6 3 10 9 15 12 12 3 -3 0 -11 -7 -18z m-91 9 c0
-2 -8 -10 -17 -17 -16 -13 -17 -12 -4 4 13 16 21 21 21 13z m61 -19 c-10 -9
-11 -8 -5 6 3 10 9 15 12 12 3 -3 0 -11 -7 -18z m123 7 c3 -8 2 -12 -4 -9 -6
3 -10 10 -10 16 0 14 7 11 14 -7z m-176 -24 c-7 -10 -14 -17 -17 -15 -4 4 18
35 25 35 2 0 -1 -9 -8 -20z m126 12 c2 -4 -4 -8 -14 -8 -10 0 -16 4 -14 8 7
10 21 10 28 0z m-44 -5 c0 -2 -8 -11 -18 -20 -15 -14 -19 -15 -19 -2 0 8 4 12
8 9 4 -2 10 0 14 6 6 10 15 14 15 7z m-2 -47 c-7 -10 -14 -17 -17 -15 -4 4 18
35 25 35 2 0 -1 -9 -8 -20z"/>
</g>
</svg>
